<?xml version="1.0" standalone="no"?><svg xmlns="http://www.w3.org/2000/svg" viewBox="0 0 1440 320"><path fill="#0099ff" fill-opacity="1" d="M0,64L30,74.7C60,85,120,107,180,117.3C240,128,300,128,360,117.3C420,107,480,85,540,112C600,139,660,213,720,234.7C780,256,840,224,900,208C960,192,1020,192,1080,197.3C1140,203,1200,213,1260,224C1320,235,1380,245,1410,250.7L1440,256L1440,320L1410,320C1380,320,1320,320,1260,320C1200,320,1140,320,1080,320C1020,320,960,320,900,320C840,320,780,320,720,320C660,320,600,320,540,320C480,320,420,320,360,320C300,320,240,320,180,320C120,320,60,320,30,320L0,320Z"></path></svg>