<svg width="110" height="110" viewBox="0 0 110 110" fill="none" xmlns="http://www.w3.org/2000/svg">
<path d="M55 0C24.6738 0 0 24.6717 0 55C0 85.3283 24.6738 110 55 110C85.3262 110 110 85.3283 110 55C110 24.6717 85.3262 0 55 0ZM55 105.769C27.0071 105.769 4.23077 82.9929 4.23077 55C4.23077 27.0071 27.0071 4.23077 55 4.23077C82.9929 4.23077 105.769 27.0071 105.769 55C105.769 82.9929 82.9929 105.769 55 105.769Z" fill="#2FA84F"/>
<path d="M81.4424 52.8846H57.1155V29.6154C57.1155 28.4456 56.1678 27.5 55.0001 27.5C53.8324 27.5 52.8847 28.4456 52.8847 29.6154V52.8846H28.5578C27.3901 52.8846 26.4424 53.8302 26.4424 55C26.4424 56.1698 27.3901 57.1154 28.5578 57.1154H52.8847V82.5C52.8847 83.6698 53.8324 84.6154 55.0001 84.6154C56.1678 84.6154 57.1155 83.6698 57.1155 82.5V57.1154H81.4424C82.6101 57.1154 83.5578 56.1698 83.5578 55C83.5578 53.8302 82.6101 52.8846 81.4424 52.8846Z" fill="#2FA84F"/>
</svg>
