<svg width="39" height="41" viewBox="0 0 39 41" fill="none" xmlns="http://www.w3.org/2000/svg">
<path d="M35.3428 31.5121V25.3247C35.3428 18.5484 30.9742 12.7632 24.8776 10.5798C25.3251 9.97998 25.5903 9.23925 25.5903 8.43823C25.5903 7.15194 24.9069 6.02115 23.881 5.38069C24.9381 4.29635 25.5903 2.82315 25.5903 1.20117C25.5903 0.537805 25.0467 0 24.3763 0H14.6237C13.9533 0 13.4097 0.537805 13.4097 1.20117C13.4097 2.82315 14.0619 4.29635 15.119 5.38069C14.0931 6.02115 13.4097 7.15194 13.4097 8.43823C13.4097 9.23925 13.675 9.97998 14.1224 10.5798C8.02579 12.7632 3.65723 18.5484 3.65723 25.3247V31.5121C1.55676 32.0473 0 33.9373 0 36.1803C8.09337e-05 38.8379 2.18521 41 4.87124 41H34.1288C36.8148 41 39 38.8379 39 36.1803C39 33.9373 37.4432 32.0473 35.3428 31.5121ZM19.5 24.1235C21.5138 24.1235 23.1521 25.7446 23.1521 27.7371C23.1521 29.3085 22.1327 30.6482 20.714 31.1445V32.5618C20.714 33.2251 20.1705 33.7629 19.5 33.7629C18.8295 33.7629 18.286 33.2251 18.286 32.5618V31.3506H17.0619C16.3914 31.3506 15.8479 30.8128 15.8479 30.1494C15.8479 29.486 16.3914 28.9482 17.0619 28.9482H19.5C20.175 28.9482 20.7241 28.4049 20.7241 27.7371C20.7241 27.0692 20.175 26.5259 19.5 26.5259C17.4862 26.5259 15.8479 24.9049 15.8479 22.9124C15.8479 21.3409 16.8673 20.0012 18.286 19.5049V18.0876C18.286 17.4243 18.8295 16.8865 19.5 16.8865C20.1705 16.8865 20.714 17.4243 20.714 18.0876V19.2988H21.9381C22.6086 19.2988 23.1521 19.8366 23.1521 20.5C23.1521 21.1634 22.6086 21.7012 21.9381 21.7012H19.5C18.825 21.7012 18.2759 22.2445 18.2759 22.9124C18.2759 23.5802 18.825 24.1235 19.5 24.1235Z" fill="#9F9F9F"/>
</svg>
