<svg width="17" height="17" viewBox="0 0 128 127" fill="none" xmlns="http://www.w3.org/2000/svg">
<g clip-path="url(#clip0)">
<path d="M33.12 17.627L63.661 35.254L94.195 17.627L63.661 0L33.12 17.627Z" fill="#B5B5B5"/>
<path d="M94.934 18.9072L64.393 36.5342V71.8042L94.934 54.1672V18.9072Z" fill="#5B5B5B"/>
<path d="M32.383 54.1672L62.917 71.7972V36.5372L32.383 18.9102V54.1672Z" fill="#7C7C7C"/>
<path d="M0.738007 72.8199L31.278 90.4499L61.813 72.8199L31.278 55.1899L0.738007 72.8199Z" fill="#B5B5B5"/>
<path d="M0 109.364L30.534 126.994V91.733L0 74.104V109.364Z" fill="#7C7C7C"/>
<path d="M65.503 72.8199L96.044 90.4499L126.578 72.8199L96.044 55.1899L65.503 72.8199Z" fill="#B5B5B5"/>
<path d="M127.316 74.104L96.775 91.733V127L127.316 109.364V74.104Z" fill="#5B5B5B"/>
<path d="M64.765 109.364L95.3 126.994V91.733L64.765 74.104V109.364Z" fill="#7C7C7C"/>
<path d="M62.92 74.104L32.379 91.73V127L62.92 109.363V74.104Z" fill="#5B5B5B"/>
</g>
<defs>
<clipPath id="clip0">
<rect width="127.316" height="127" fill="white"/>
</clipPath>
</defs>
</svg>
