<svg width="34" height="28" viewBox="0 0 34 28" fill="none" xmlns="http://www.w3.org/2000/svg">
<path d="M25.4539 25.4546C25.4539 26.1575 25.7032 26.7572 26.2 27.2539C26.6967 27.7512 27.2969 28 28.0001 28C28.7023 28 29.3025 27.7512 29.7992 27.2539C30.2965 26.7572 30.5452 26.1575 30.5452 25.4546C30.5452 24.7516 30.2967 24.1519 29.7992 23.6547C29.3025 23.1579 28.7023 22.9091 28.0001 22.9091C27.2969 22.9091 26.6967 23.1579 26.2 23.6547C25.7032 24.1519 25.4539 24.7516 25.4539 25.4546Z" fill="#9F9F9F"/>
<path d="M32.7125 2.92307C32.4605 2.67114 32.1624 2.54514 31.8176 2.54514H7.93459C7.92114 2.45244 7.89133 2.28353 7.84494 2.03829C7.79856 1.7929 7.7622 1.59746 7.73566 1.45147C7.70898 1.30611 7.65953 1.13031 7.58647 0.924836C7.51354 0.719224 7.42738 0.556657 7.32799 0.437622C7.22873 0.31796 7.09619 0.215502 6.93042 0.129065C6.76478 0.0431841 6.57575 0 6.36373 0H1.27295C0.92804 0 0.629791 0.126209 0.37793 0.377791C0.126 0.629652 0 0.928109 0 1.27275C0 1.61738 0.126 1.9157 0.37793 2.16756C0.63 2.41949 0.928318 2.54535 1.27295 2.54535H5.32926L8.8489 18.9118C8.82258 18.9648 8.68669 19.2164 8.4413 19.6674C8.19606 20.1184 8.00055 20.5126 7.85483 20.8507C7.70905 21.1891 7.63613 21.4508 7.63613 21.6363C7.63613 21.9809 7.76213 22.2793 8.01392 22.5316C8.26613 22.7827 8.56431 22.9091 8.90901 22.9091H10.1817H27.9996H29.2716C29.6162 22.9091 29.9146 22.7828 30.1664 22.5316C30.4185 22.2794 30.5444 21.981 30.5444 21.6363C30.5444 21.2916 30.4185 20.9932 30.1664 20.7414C29.9147 20.4897 29.6163 20.3634 29.2716 20.3634H10.9768C11.2951 19.7269 11.4542 19.3031 11.4542 19.091C11.4542 18.958 11.4376 18.8121 11.4044 18.6534C11.3712 18.4946 11.3315 18.3187 11.2851 18.1262C11.2387 17.9345 11.209 17.7919 11.1957 17.699L31.9573 15.273C32.2884 15.2329 32.5604 15.0909 32.7725 14.8453C32.9846 14.6003 33.0904 14.3186 33.0904 14.0002V3.81831C33.0903 3.47367 32.9646 3.17535 32.7125 2.92307Z" fill="#9F9F9F"/>
<path d="M7.63605 25.4546C7.63605 26.1575 7.8845 26.7572 8.38174 27.2539C8.87913 27.7512 9.47876 28 10.1816 28C10.8841 28 11.484 27.7512 11.9811 27.2539C12.4783 26.7572 12.727 26.1575 12.727 25.4546C12.727 24.7516 12.4785 24.1519 11.9811 23.6547C11.484 23.1579 10.8841 22.9091 10.1816 22.9091C9.47883 22.9091 8.87885 23.1579 8.38174 23.6547C7.88478 24.1519 7.63605 24.7516 7.63605 25.4546Z" fill="#9F9F9F"/>
</svg>
