<svg width="21" height="21" viewBox="0 0 21 21" fill="none" xmlns="http://www.w3.org/2000/svg">
<path d="M17.3277 2.52306C15.7856 1.20311 13.9715 0.40837 12.1026 0.121712C8.63239 -0.410661 4.97405 0.808925 2.52319 3.67238C-1.24763 8.078 -0.733101 14.7061 3.67251 18.477C5.2146 19.7969 7.02861 20.5915 8.89751 20.8783C12.3676 21.4107 16.0261 20.191 18.4769 17.3275C22.2477 12.9219 21.7331 6.29381 17.3277 2.52306ZM19.3627 13.5459L16.1537 12.4397C16.5859 11.1787 16.5807 9.81133 16.1547 8.56348L19.3603 7.46027C19.6137 8.20068 19.7755 8.97813 19.8377 9.77938C19.9385 11.0762 19.7729 12.3522 19.3627 13.5459ZM19.5429 7.37059C19.5429 7.37038 19.5429 7.37024 19.5429 7.37003C19.5429 7.37024 19.5429 7.37038 19.5429 7.37059ZM17.5618 4.35414L15.0069 6.57345C14.8179 6.35706 14.6117 6.15122 14.387 5.95884C13.5748 5.2637 12.6297 4.82588 11.6503 4.63485L12.2945 1.32409C13.8762 1.63079 15.3551 2.33656 16.5894 3.39302C16.9393 3.6925 17.2638 4.01393 17.5618 4.35414ZM7.31349 1.69872C7.7688 1.53474 8.2358 1.40767 8.70959 1.31707L9.35324 4.63506C8.09321 4.88064 6.90359 5.53116 5.9963 6.57168L3.43891 4.34762C4.48609 3.14603 5.82283 2.23598 7.31349 1.69872ZM1.63793 7.45404L4.84641 8.56022C4.41419 9.82124 4.41944 11.1884 4.84535 12.4364L1.63701 13.5405C1.38471 12.8009 1.22356 12.0247 1.16151 11.2251C1.06079 9.92714 1.22682 8.64926 1.63793 7.45404ZM3.43303 16.6502L5.99325 14.4264C6.1823 14.6429 6.3885 14.8488 6.61332 15.0412C7.42548 15.7364 8.37052 16.174 9.34984 16.3651L8.70223 19.694C7.1209 19.3861 5.64334 18.6725 4.40952 17.6163C4.05784 17.3154 3.73208 16.9924 3.43303 16.6502ZM13.685 19.3113C13.231 19.4748 12.7652 19.6024 12.2926 19.694L11.6468 16.3649C12.9068 16.1193 14.0965 15.4688 15.0038 14.4282L17.5623 16.6529C16.5148 17.8558 15.1763 18.7738 13.685 19.3113Z" />
<path d="M6.61365 4.35597C6.92661 4.35597 7.18031 4.10227 7.18031 3.78931C7.18031 3.47636 6.92661 3.22266 6.61365 3.22266C6.3007 3.22266 6.047 3.47636 6.047 3.78931C6.047 4.10227 6.3007 4.35597 6.61365 4.35597Z" />
<path d="M2.74537 11.0767C3.05832 11.0767 3.31202 10.823 3.31202 10.51C3.31202 10.1971 3.05832 9.94336 2.74537 9.94336C2.43241 9.94336 2.17871 10.1971 2.17871 10.51C2.17871 10.823 2.43241 11.0767 2.74537 11.0767Z" />
<path d="M6.63148 17.7876C6.94443 17.7876 7.19813 17.5339 7.19813 17.221C7.19813 16.908 6.94443 16.6543 6.63148 16.6543C6.31852 16.6543 6.06482 16.908 6.06482 17.221C6.06482 17.5339 6.31852 17.7876 6.63148 17.7876Z" />
<path d="M14.3864 17.7775C14.6994 17.7775 14.9532 17.5238 14.9532 17.2108C14.9532 16.8978 14.6994 16.644 14.3864 16.644C14.0734 16.644 13.8197 16.8978 13.8197 17.2108C13.8197 17.5238 14.0734 17.7775 14.3864 17.7775Z" />
<path d="M18.2546 11.0562C18.5676 11.0562 18.8213 10.8025 18.8213 10.4895C18.8213 10.1766 18.5676 9.92285 18.2546 9.92285C17.9417 9.92285 17.688 10.1766 17.688 10.4895C17.688 10.8025 17.9417 11.0562 18.2546 11.0562Z" />
<path d="M14.3687 4.34572C14.6816 4.34572 14.9353 4.09201 14.9353 3.77906C14.9353 3.4661 14.6816 3.2124 14.3687 3.2124C14.0557 3.2124 13.802 3.4661 13.802 3.77906C13.802 4.09201 14.0557 4.34572 14.3687 4.34572Z" />
</svg>
