<svg width="88" height="76" viewBox="0 0 88 76" fill="none" xmlns="http://www.w3.org/2000/svg">
<path d="M74.7648 24.3513C73.9904 11.1513 63.1092 0.600098 49.9899 0.600098C42.0259 0.600098 34.3141 4.50583 29.5372 10.8785C29.4272 10.8213 29.3113 10.7817 29.1999 10.7289C28.9095 10.5881 28.6147 10.4546 28.314 10.3344C28.1468 10.2684 27.9796 10.2082 27.8109 10.1496C27.5132 10.0454 27.2111 9.95303 26.9031 9.86943C26.7344 9.82396 26.5672 9.77703 26.3971 9.7389C26.0671 9.6641 25.7297 9.6069 25.3895 9.55556C25.2413 9.53356 25.0961 9.50423 24.9465 9.4881C24.4596 9.43383 23.9668 9.4001 23.4667 9.4001C16.1876 9.4001 10.2667 15.321 10.2667 22.6001C10.2667 22.7893 10.2784 22.9741 10.2916 23.1589C4.19027 26.4838 0 33.452 0 40.426C0 50.8144 8.45093 59.2668 18.8393 59.2668H26.4C27.2111 59.2668 27.8667 58.6112 27.8667 57.8001C27.8667 56.989 27.2111 56.3334 26.4 56.3334H18.8393C10.0687 56.3334 2.93333 49.1981 2.93333 40.426C2.93333 34.3334 6.90067 28.0092 12.3684 25.3882L13.2 24.9908V24.0668C13.2 23.8908 13.2117 23.7118 13.222 23.5314L13.2381 23.2601L13.2191 22.9756C13.2103 22.8509 13.2 22.7262 13.2 22.6001C13.2 16.9402 17.8068 12.3334 23.4667 12.3334C23.9199 12.3334 24.3672 12.373 24.8116 12.4317C24.926 12.4464 25.0404 12.4654 25.1533 12.4845C25.5449 12.549 25.9307 12.6341 26.3105 12.7441C26.3619 12.7588 26.4147 12.769 26.466 12.7837C26.884 12.9113 27.2917 13.0726 27.6907 13.2545C27.7948 13.3014 27.896 13.3528 27.9987 13.4026C28.3507 13.5772 28.6953 13.7678 29.0283 13.9834C31.8545 15.8138 33.7333 18.9892 33.7333 22.6001C33.7333 23.4112 34.3889 24.0668 35.2 24.0668C36.0111 24.0668 36.6667 23.4112 36.6667 22.6001C36.6667 18.5609 34.8392 14.9456 31.9733 12.5226C36.1783 7.02263 43.1024 3.53343 49.9899 3.53343C61.3492 3.53343 70.7843 12.5314 71.7684 23.9025C70.2709 23.7969 68.0255 23.7426 65.78 24.0844C64.9792 24.2061 64.4292 24.9541 64.5509 25.7549C64.6609 26.4809 65.2857 27.0016 65.9985 27.0016C66.0719 27.0016 66.1467 26.9957 66.22 26.984C69.4863 26.4897 72.8904 26.9532 73.0899 26.981C79.9187 28.279 85.0667 34.5696 85.0667 41.6257C85.0667 49.7349 78.4681 56.3334 70.3589 56.3334H64.5333C63.7223 56.3334 63.0667 56.989 63.0667 57.8001C63.0667 58.6112 63.7223 59.2668 64.5333 59.2668H70.3589C80.0859 59.2668 88 51.3526 88 41.6257C88 33.5752 82.3871 26.3548 74.7648 24.3513Z" fill="#00F8BC"/>
<path d="M56.1634 61.1631L46.9336 70.3929V40.2001C46.9336 39.389 46.278 38.7334 45.467 38.7334C44.6559 38.7334 44.0003 39.389 44.0003 40.2001V70.3929L34.7706 61.1631C34.1971 60.5897 33.2702 60.5897 32.6967 61.1631C32.1232 61.7366 32.1232 62.6635 32.6967 63.237L44.4286 74.9689C44.5635 75.1053 44.7263 75.2123 44.9067 75.2871C45.0856 75.3619 45.2763 75.4001 45.467 75.4001C45.6576 75.4001 45.8483 75.3619 46.0272 75.2871C46.2076 75.2123 46.3704 75.1053 46.5054 74.9689L58.2372 63.237C58.8107 62.6635 58.8107 61.7366 58.2372 61.1631C57.6638 60.5897 56.7368 60.5897 56.1634 61.1631Z" fill="#00F8BC"/>
</svg>
