<?xml version="1.0" encoding="UTF-8" standalone="no"?>
<!-- Generator: Adobe Illustrator 16.0.0, SVG Export Plug-In . SVG Version: 6.00 Build 0)  -->

<svg
   xmlns:dc="http://purl.org/dc/elements/1.1/"
   xmlns:cc="http://creativecommons.org/ns#"
   xmlns:rdf="http://www.w3.org/1999/02/22-rdf-syntax-ns#"
   xmlns:svg="http://www.w3.org/2000/svg"
   xmlns="http://www.w3.org/2000/svg"
   xmlns:sodipodi="http://sodipodi.sourceforge.net/DTD/sodipodi-0.dtd"
   xmlns:inkscape="http://www.inkscape.org/namespaces/inkscape"
   version="1.1"
   id="Capa_1"
   x="0px"
   y="0px"
   width="611.989px"
   height="611.988px"
   viewBox="0 0 611.989 611.988"
   style="enable-background:new 0 0 611.989 611.988;"
   xml:space="preserve"
   sodipodi:docname="connection.svg"
   inkscape:version="0.92.1 r15371"><metadata
     id="metadata44"><rdf:RDF><cc:Work
         rdf:about=""><dc:format>image/svg+xml</dc:format><dc:type
           rdf:resource="http://purl.org/dc/dcmitype/StillImage" /></cc:Work></rdf:RDF></metadata><defs
     id="defs42" /><sodipodi:namedview
     pagecolor="#ffffff"
     bordercolor="#666666"
     borderopacity="1"
     objecttolerance="10"
     gridtolerance="10"
     guidetolerance="10"
     inkscape:pageopacity="0"
     inkscape:pageshadow="2"
     inkscape:window-width="1920"
     inkscape:window-height="1009"
     id="namedview40"
     showgrid="false"
     inkscape:zoom="0.38562849"
     inkscape:cx="305.99451"
     inkscape:cy="305.99399"
     inkscape:window-x="1600"
     inkscape:window-y="24"
     inkscape:window-maximized="1"
     inkscape:current-layer="Capa_1" /><g
     id="g7"
     style="fill:#008080"><g
       id="Wi-Fi"
       style="fill:#008080"><g
         id="g4"
         style="fill:#008080"><path
           d="M305.994,417.769c-30.85,0-55.887,25.037-55.887,55.887s25.038,55.887,55.887,55.887s55.887-25.037,55.887-55.887     S336.843,417.769,305.994,417.769z M605.436,222.369C530.697,133.434,421.549,82.446,305.994,82.446     S81.309,133.434,6.551,222.369c-9.93,11.811-8.402,29.434,3.428,39.363c5.234,4.396,11.587,6.558,17.939,6.558     c7.973,0,15.891-3.391,21.423-9.967c64.084-76.248,157.639-119.989,256.652-119.989c99.013,0,192.568,43.741,256.651,119.971     c5.533,6.576,13.45,9.967,21.424,9.967c6.353,0,12.724-2.143,17.958-6.558C613.837,251.802,615.366,234.161,605.436,222.369z      M305.994,194.22c-82.545,0-160.489,36.419-213.879,99.926c-9.929,11.811-8.402,29.434,3.428,39.363     c5.234,4.396,11.605,6.558,17.958,6.558c7.973,0,15.891-3.391,21.405-9.967c42.716-50.838,105.086-79.993,171.089-79.993     c66.003,0,128.372,29.155,171.107,79.993c5.533,6.595,13.45,9.967,21.404,9.967c6.353,0,12.724-2.143,17.959-6.558     c11.829-9.929,13.356-27.57,3.428-39.363C466.483,230.64,388.539,194.22,305.994,194.22z M305.994,305.994     c-49.553,0-96.331,21.852-128.335,59.948c-9.93,11.811-8.402,29.434,3.428,39.363c5.234,4.396,11.605,6.557,17.958,6.557     c7.973,0,15.891-3.39,21.405-9.966c21.368-25.429,52.552-40.016,85.544-40.016s64.177,14.587,85.544,40.016     c5.533,6.595,13.45,9.966,21.405,9.966c6.353,0,12.724-2.142,17.958-6.557c11.83-9.93,13.357-27.553,3.428-39.363     C402.324,327.846,355.546,305.994,305.994,305.994z"
           id="path2"
           style="fill:#008080" /></g></g></g><g
     id="g9" /><g
     id="g11" /><g
     id="g13" /><g
     id="g15" /><g
     id="g17" /><g
     id="g19" /><g
     id="g21" /><g
     id="g23" /><g
     id="g25" /><g
     id="g27" /><g
     id="g29" /><g
     id="g31" /><g
     id="g33" /><g
     id="g35" /><g
     id="g37" /></svg>