<?xml version="1.0" encoding="UTF-8" standalone="no"?>
<!-- Generator: Adobe Illustrator 19.0.0, SVG Export Plug-In . SVG Version: 6.00 Build 0)  -->

<svg
   xmlns:dc="http://purl.org/dc/elements/1.1/"
   xmlns:cc="http://creativecommons.org/ns#"
   xmlns:rdf="http://www.w3.org/1999/02/22-rdf-syntax-ns#"
   xmlns:svg="http://www.w3.org/2000/svg"
   xmlns="http://www.w3.org/2000/svg"
   xmlns:sodipodi="http://sodipodi.sourceforge.net/DTD/sodipodi-0.dtd"
   xmlns:inkscape="http://www.inkscape.org/namespaces/inkscape"
   version="1.1"
   id="Layer_1"
   x="0px"
   y="0px"
   viewBox="0 0 512 512"
   style="enable-background:new 0 0 512 512;"
   xml:space="preserve"
   sodipodi:docname="contract.svg"
   inkscape:version="0.92.1 r15371"><metadata
     id="metadata103"><rdf:RDF><cc:Work
         rdf:about=""><dc:format>image/svg+xml</dc:format><dc:type
           rdf:resource="http://purl.org/dc/dcmitype/StillImage" /></cc:Work></rdf:RDF></metadata><defs
     id="defs101" /><sodipodi:namedview
     pagecolor="#ffffff"
     bordercolor="#666666"
     borderopacity="1"
     objecttolerance="10"
     gridtolerance="10"
     guidetolerance="10"
     inkscape:pageopacity="0"
     inkscape:pageshadow="2"
     inkscape:window-width="750"
     inkscape:window-height="480"
     id="namedview99"
     showgrid="false"
     inkscape:zoom="0.4609375"
     inkscape:cx="256"
     inkscape:cy="256"
     inkscape:window-x="0"
     inkscape:window-y="0"
     inkscape:window-maximized="0"
     inkscape:current-layer="Layer_1" /><g
     id="g6"
     style="fill:#ffffff"><g
       id="g4"
       style="fill:#ffffff"><path
         d="M431.279,0H80.721c-5.632,0-10.199,4.566-10.199,10.199v491.602c0,5.633,4.567,10.199,10.199,10.199h266.562    c2.705,0,5.298-1.075,7.212-2.987l83.997-83.998c1.912-1.912,2.987-4.506,2.987-7.212V10.199C441.479,4.566,436.912,0,431.279,0z     M357.463,477.196l-0.044-49.257l49.257,0.045L357.463,477.196z M421.081,407.599l-73.862-0.067c-0.003,0-0.006,0-0.009,0    c-2.705,0-5.299,1.075-7.212,2.987c-1.914,1.915-2.989,4.513-2.987,7.221l0.066,73.862H90.92V20.398h330.161V407.599z"
         id="path2"
         style="fill:#ffffff" /></g></g><g
     id="g12"
     style="fill:#ffffff"><g
       id="g10"
       style="fill:#ffffff"><path
         d="M175.023,367.976c-25.647,0-46.513,20.865-46.513,46.513c0,25.649,20.867,46.514,46.513,46.514    c25.648,0,46.514-20.865,46.514-46.514C221.539,388.842,200.672,367.976,175.023,367.976z M175.023,440.606    c-14.4,0-26.115-11.716-26.115-26.116c0-14.4,11.715-26.115,26.115-26.115s26.116,11.715,26.116,26.115    S189.425,440.606,175.023,440.606z"
         id="path8"
         style="fill:#ffffff" /></g></g><g
     id="g18"
     style="fill:#ffffff"><g
       id="g16"
       style="fill:#ffffff"><path
         d="M308.016,405.928H251.92c-5.632,0-10.199,4.566-10.199,10.199s4.567,10.199,10.199,10.199h56.096    c5.632,0,10.199-4.566,10.199-10.199S313.648,405.928,308.016,405.928z"
         id="path14"
         style="fill:#ffffff" /></g></g><g
     id="g24"
     style="fill:#ffffff"><g
       id="g22"
       style="fill:#ffffff"><path
         d="M171.347,61.195h-29.578c-5.632,0-10.199,4.566-10.199,10.199c0,5.633,4.567,10.199,10.199,10.199h29.578    c5.632,0,10.199-4.566,10.199-10.199C181.546,65.761,176.979,61.195,171.347,61.195z"
         id="path20"
         style="fill:#ffffff" /></g></g><g
     id="g30"
     style="fill:#ffffff"><g
       id="g28"
       style="fill:#ffffff"><path
         d="M374.311,61.195h-88.733c-5.632,0-10.199,4.566-10.199,10.199c0,5.633,4.567,10.199,10.199,10.199h88.733    c5.632,0,10.199-4.566,10.199-10.199C384.51,65.761,379.943,61.195,374.311,61.195z"
         id="path26"
         style="fill:#ffffff" /></g></g><g
     id="g36"
     style="fill:#ffffff"><g
       id="g34"
       style="fill:#ffffff"><path
         d="M374.311,105.052H223.363c-5.632,0-10.199,4.566-10.199,10.199c0,5.633,4.567,10.199,10.199,10.199h150.948    c5.632,0,10.199-4.566,10.199-10.199C384.51,109.618,379.943,105.052,374.311,105.052z"
         id="path32"
         style="fill:#ffffff" /></g></g><g
     id="g42"
     style="fill:#ffffff"><g
       id="g40"
       style="fill:#ffffff"><path
         d="M374.821,185.625H137.179c-5.632,0-10.199,4.566-10.199,10.199s4.567,10.199,10.199,10.199h237.641    c5.632,0,10.199-4.566,10.199-10.199S380.453,185.625,374.821,185.625z"
         id="path38"
         style="fill:#ffffff" /></g></g><g
     id="g48"
     style="fill:#ffffff"><g
       id="g46"
       style="fill:#ffffff"><path
         d="M374.821,220.303H137.179c-5.632,0-10.199,4.566-10.199,10.199c0,5.633,4.567,10.199,10.199,10.199h237.641    c5.632,0,10.199-4.566,10.199-10.199C385.02,224.869,380.453,220.303,374.821,220.303z"
         id="path44"
         style="fill:#ffffff" /></g></g><g
     id="g54"
     style="fill:#ffffff"><g
       id="g52"
       style="fill:#ffffff"><path
         d="M374.821,258.04H137.179c-5.632,0-10.199,4.566-10.199,10.199c0,5.633,4.567,10.199,10.199,10.199h237.641    c5.632,0,10.199-4.566,10.199-10.199C385.02,262.606,380.453,258.04,374.821,258.04z"
         id="path50"
         style="fill:#ffffff" /></g></g><g
     id="g60"
     style="fill:#ffffff"><g
       id="g58"
       style="fill:#ffffff"><path
         d="M374.821,292.717h-5.61c-5.632,0-10.199,4.566-10.199,10.199c0,5.633,4.567,10.199,10.199,10.199h5.61    c5.632,0,10.199-4.566,10.199-10.199C385.02,297.283,380.453,292.717,374.821,292.717z"
         id="path56"
         style="fill:#ffffff" /></g></g><g
     id="g66"
     style="fill:#ffffff"><g
       id="g64"
       style="fill:#ffffff"><path
         d="M333.514,292.717H137.179c-5.632,0-10.199,4.566-10.199,10.199c0,5.633,4.567,10.199,10.199,10.199h196.335    c5.632,0,10.199-4.566,10.199-10.199C343.713,297.283,339.146,292.717,333.514,292.717z"
         id="path62"
         style="fill:#ffffff" /></g></g><g
     id="g68" /><g
     id="g70" /><g
     id="g72" /><g
     id="g74" /><g
     id="g76" /><g
     id="g78" /><g
     id="g80" /><g
     id="g82" /><g
     id="g84" /><g
     id="g86" /><g
     id="g88" /><g
     id="g90" /><g
     id="g92" /><g
     id="g94" /><g
     id="g96" /></svg>