<svg width="11" height="12" viewBox="0 0 11 12" fill="none" xmlns="http://www.w3.org/2000/svg">
<path d="M1.5 3.375C1.5 2.0655 2.5655 1 3.875 1H8.44151C8.27701 0.4245 7.75251 0 7.12501 0H1.375C0.616501 0 0 0.616501 0 1.375V9.12501C0 9.88351 0.616501 10.5 1.375 10.5H1.5V3.375Z" fill="var(--theme-negative)"/>
<path d="M9.62501 2.00024H3.875C3.1165 2.00024 2.5 2.61674 2.5 3.37525V10.6253C2.5 11.3838 3.1165 12.0003 3.875 12.0003H9.62501C10.3835 12.0003 11 11.3838 11 10.6253V3.37525C11 2.61674 10.3835 2.00024 9.62501 2.00024ZM8.62501 10.5003H4.875C4.668 10.5003 4.5 10.3323 4.5 10.1253C4.5 9.91825 4.668 9.75025 4.875 9.75025H8.62501C8.83201 9.75025 9.00001 9.91825 9.00001 10.1253C9.00001 10.3323 8.83201 10.5003 8.62501 10.5003ZM8.62501 8.50025H4.875C4.668 8.50025 4.5 8.33225 4.5 8.12525C4.5 7.91825 4.668 7.75025 4.875 7.75025H8.62501C8.83201 7.75025 9.00001 7.91825 9.00001 8.12525C9.00001 8.33225 8.83201 8.50025 8.62501 8.50025ZM8.62501 6.75025H4.875C4.668 6.75025 4.5 6.58225 4.5 6.37525C4.5 6.16825 4.668 6.00025 4.875 6.00025H8.62501C8.83201 6.00025 9.00001 6.16825 9.00001 6.37525C9.00001 6.58225 8.83201 6.75025 8.62501 6.75025ZM8.62501 4.75025H4.875C4.668 4.75025 4.5 4.58225 4.5 4.37525C4.5 4.16825 4.668 4.00025 4.875 4.00025H8.62501C8.83201 4.00025 9.00001 4.16825 9.00001 4.37525C9.00001 4.58225 8.83201 4.75025 8.62501 4.75025Z" fill="var(--theme-negative)"/>
</svg>
