<svg width="18" height="18" viewBox="0 0 549 549" fill="none" xmlns="http://www.w3.org/2000/svg">
<g clip-path="url(#clip0)">
<path d="M534.75 49.965C525.805 41.02 515.056 36.543 502.489 36.543H45.681C33.119 36.543 22.368 41.02 13.417 49.965C4.471 58.913 0 69.663 0 82.226V392.859C0 405.425 4.471 416.174 13.417 425.124C22.368 434.069 33.119 438.538 45.681 438.538H200.999C200.999 445.769 199.475 453.199 196.429 460.807C193.385 468.421 190.339 475.08 187.293 480.788C184.251 486.503 182.728 490.685 182.728 493.348C182.728 498.296 184.535 502.588 188.152 506.195C191.767 509.816 196.05 511.63 200.999 511.63H347.178C352.127 511.63 356.411 509.817 360.026 506.195C363.646 502.589 365.453 498.297 365.453 493.348C365.453 490.88 363.927 486.737 360.882 480.933C357.836 475.132 354.79 468.367 351.748 460.666C348.702 452.956 347.179 445.581 347.179 438.538H502.497C515.057 438.538 525.806 434.069 534.751 425.124C543.7 416.175 548.173 405.426 548.173 392.859V82.226C548.176 69.663 543.699 58.913 534.75 49.965ZM511.627 319.768C511.627 322.243 510.724 324.381 508.916 326.192C507.106 327.996 504.964 328.899 502.489 328.899H45.681C43.208 328.899 41.066 327.996 39.258 326.192C37.451 324.375 36.546 322.243 36.546 319.768V82.226C36.546 79.751 37.448 77.611 39.258 75.803C41.067 73.998 43.209 73.091 45.681 73.091H502.496C504.967 73.091 507.113 73.995 508.916 75.803C510.724 77.612 511.627 79.752 511.627 82.226V319.768Z" fill="#A8A8A8"/>
</g>
<defs>
<clipPath id="clip0">
<rect width="548.172" height="548.172" fill="white"/>
</clipPath>
</defs>
</svg>
