<svg width="99" height="102" viewBox="0 0 99 102" fill="none" xmlns="http://www.w3.org/2000/svg">
<path d="M95.507 49.7008C93.942 49.7008 92.69 51.1015 92.69 52.8523V81.5195C92.69 89.3167 87.0143 95.6431 80.0656 95.6431H18.2584C11.2889 95.6431 5.63402 89.2933 5.63402 81.5195V52.3854C5.63402 50.6346 4.38201 49.2339 2.81701 49.2339C1.252 49.2339 0 50.6346 0 52.3854V81.5195C0 92.795 8.20063 101.946 18.2584 101.946H80.0656C90.1443 101.946 98.324 92.7717 98.324 81.5195V52.8523C98.324 51.1248 97.072 49.7008 95.507 49.7008Z" fill="#057A8E"/>
<path d="M47.1795 76.9206C47.722 77.5276 48.4524 77.8544 49.1618 77.8544C49.8713 77.8544 50.6016 77.5509 51.1442 76.9206L69.0478 56.8909C70.1537 55.6537 70.1537 53.6694 69.0478 52.4321C67.9419 51.1948 66.1682 51.1948 65.0623 52.4321L51.9788 67.0925V3.15153C51.9788 1.40068 50.7268 0 49.1618 0C47.5968 0 46.3448 1.40068 46.3448 3.15153V67.0925L33.2405 52.4321C32.1346 51.1948 30.3609 51.1948 29.255 52.4321C28.1491 53.6694 28.1491 55.6537 29.255 56.8909L47.1795 76.9206Z" fill="#057A8E"/>
</svg>
