<svg width="33" height="53" viewBox="0 0 33 53" fill="none" xmlns="http://www.w3.org/2000/svg">
<path d="M27.5233 21.3263C22.8163 14.6017 18.3485 10.0604 17.9497 1.15252C17.9497 0.890522 17.8699 0.715857 17.7103 0.541193C17.6306 0.104531 17.2316 -0.157465 16.8327 0.104531C16.354 0.104531 15.9553 0.45386 15.9553 1.06519C5.90283 12.9424 -11.0906 43.072 10.2908 51.7178C19.9443 55.6479 30.8744 50.3206 32.7891 38.7926C33.8262 32.5921 30.8741 26.0424 27.5233 21.3263ZM10.3705 46.1286C8.05679 44.644 6.62073 41.6748 5.9027 39.0547C5.58357 37.7447 5.42401 36.4349 5.50379 35.1249C5.98248 32.8543 6.62073 30.6708 7.33876 28.4877C7.73767 30.4088 8.53548 32.3303 9.65242 33.7275C12.2054 36.7844 17.3912 38.6182 18.8273 42.4608C19.7049 44.8186 16.2743 46.8274 14.8382 47.3513C13.3224 47.8753 11.6468 47.0021 10.3705 46.1286Z" fill="#057A8E"/>
</svg>
