<svg width="11" height="11" viewBox="0 0 11 11" fill="none" xmlns="http://www.w3.org/2000/svg">
<g clip-path="url(#clip0)">
<path d="M9.03559 5.50011C8.81861 5.50011 8.64273 5.676 8.64273 5.89297V9.82148C8.64273 10.0384 8.46684 10.2143 8.24987 10.2143H1.17856C0.961582 10.2143 0.785696 10.0384 0.785696 9.82148V1.96444C0.785696 1.74747 0.961582 1.57158 1.17856 1.57158H5.89278C6.10975 1.57158 6.28564 1.3957 6.28564 1.17873C6.28564 0.961751 6.10975 0.785889 5.89278 0.785889H1.17856C0.527657 0.785889 0 1.31355 0 1.96444V9.82148C0 10.4724 0.527657 11 1.17856 11H8.24989C8.90079 11 9.42845 10.4724 9.42845 9.82148V5.89295C9.42845 5.676 9.25256 5.50011 9.03559 5.50011Z" fill="var(--theme-negative)"/>
<path d="M10.5596 0.440538C10.2776 0.158421 9.89496 -3.9822e-05 9.49602 6.2153e-06C9.09685 -0.00114472 8.71387 0.157592 8.43258 0.440791L3.25791 5.61502C3.21498 5.65827 3.1826 5.71085 3.16324 5.76862L2.37754 8.12574C2.30897 8.33159 2.42026 8.55404 2.62612 8.62259C2.66606 8.6359 2.70788 8.64269 2.74996 8.64273C2.79213 8.64267 2.83405 8.6359 2.8741 8.62271L5.23121 7.83701C5.2891 7.81768 5.3417 7.78513 5.38482 7.74195L10.5595 2.5673C11.1468 1.98005 11.1469 1.02786 10.5596 0.440538Z" fill="var(--theme-negative)"/>
</g>
<defs>
<clipPath id="clip0">
<rect width="11" height="11" fill="var(--theme-negative)"/>
</clipPath>
</defs>
</svg>
