<svg width="22" height="22" viewBox="0 0 22 22" fill="none" xmlns="http://www.w3.org/2000/svg">
<path d="M10.5291 11.901C11.2186 11.901 11.7775 11.3421 11.7775 10.6527C11.7775 9.96321 11.2186 9.4043 10.5291 9.4043C9.83967 9.4043 9.28076 9.96321 9.28076 10.6527C9.28076 11.3421 9.83967 11.901 10.5291 11.901Z" fill="var(--accent-color-primary)"/>
<path d="M10.5291 16.3121C13.6496 16.3121 16.1884 13.7734 16.1884 10.6529C16.1884 7.53241 13.6496 4.99365 10.5291 4.99365C7.40863 4.99365 4.86987 7.53241 4.86987 10.6529C4.86987 13.7734 7.40863 16.3121 10.5291 16.3121ZM10.5291 8.15617C11.9058 8.15617 13.0258 9.2762 13.0258 10.6529C13.0258 12.0296 11.9058 13.1496 10.5291 13.1496C9.15242 13.1496 8.03239 12.0296 8.03239 10.6529C8.03239 9.2762 9.15242 8.15617 10.5291 8.15617Z" fill="var(--accent-color-primary)"/>
<path d="M19.9334 10.6527C19.9334 10.4489 19.9266 10.2428 19.9133 10.0372L21.058 8.98954L20.9919 8.64657C20.9082 8.21281 20.7966 7.78025 20.6604 7.36093C20.5242 6.9416 20.3601 6.52606 20.1728 6.12576L20.0247 5.80942L18.4834 5.63478C18.2643 5.28827 18.0218 4.95508 17.7591 4.63941L18.0695 3.11837L17.8145 2.87985C17.492 2.57824 17.1475 2.29382 16.7906 2.03454C16.4338 1.7753 16.0568 1.53549 15.6701 1.32185L15.3644 1.15295L14.0161 1.91694C13.6342 1.76448 13.2415 1.63698 12.8429 1.53603L12.2009 0.125003L11.8543 0.0820174C11.4158 0.0275888 10.9699 0 10.529 0C10.0881 0 9.64227 0.0275888 9.20376 0.0820174L8.85713 0.125003L8.21518 1.53603C7.8165 1.63702 7.42385 1.76448 7.04197 1.91694L5.69366 1.15295L5.38793 1.32185C5.00127 1.53549 4.62427 1.77525 4.26753 2.0345C3.91058 2.29382 3.56607 2.57824 3.24354 2.87985L2.9885 3.11837L3.29892 4.63941C3.03614 4.95517 2.79371 5.28827 2.57466 5.63482L1.03331 5.80942L0.885256 6.12576C0.698001 6.5259 0.533966 6.94148 0.397687 7.36085C0.261366 7.78038 0.149845 8.21298 0.0661632 8.64666L0 8.98954L1.14479 10.0372C1.13143 10.2428 1.12469 10.4489 1.12469 10.6527C1.12469 10.8566 1.13143 11.0625 1.14479 11.2682L4.1619e-05 12.3158L0.0662048 12.6587C0.149887 13.0925 0.261366 13.525 0.397728 13.9445C0.533966 14.3639 0.698043 14.7794 0.885297 15.1796L1.03335 15.496L2.57471 15.6706C2.79379 16.0171 3.03618 16.3502 3.29896 16.666L2.98854 18.187L3.24358 18.4255C3.56611 18.7271 3.91062 19.0116 4.26753 19.2708C4.62431 19.5301 5.00132 19.7699 5.38797 19.9835L5.6937 20.1524L7.04201 19.3884C7.42393 19.5409 7.81654 19.6684 8.21522 19.7694L8.85717 21.1803L9.20376 21.2233C9.64214 21.2778 10.088 21.3054 10.529 21.3054C10.9701 21.3054 11.4159 21.2778 11.8543 21.2233L12.2009 21.1803L12.8429 19.7694C13.2415 19.6684 13.6343 19.5409 14.0161 19.3884L15.3644 20.1524L15.6701 19.9835C16.0568 19.7699 16.4338 19.5301 16.7905 19.2709C17.1475 19.0116 17.492 18.7271 17.8145 18.4255L18.0695 18.187L17.7591 16.666C18.0218 16.3503 18.2643 16.0171 18.4834 15.6706L20.0247 15.496L20.1728 15.1796C20.3601 14.7794 20.5241 14.3638 20.6603 13.9445C20.7966 13.5251 20.9082 13.0925 20.9919 12.6588L21.058 12.3159L19.9133 11.2682C19.9266 11.0625 19.9334 10.8566 19.9334 10.6527ZM3.62142 10.6527C3.62142 6.84386 6.72019 3.74509 10.529 3.74509C14.3379 3.74509 17.4366 6.84386 17.4366 10.6527C17.4366 14.4615 14.3379 17.5603 10.529 17.5603C6.72019 17.5603 3.62142 14.4615 3.62142 10.6527Z" fill="var(--accent-color-primary)"/>
</svg>
