<svg width="70" height="70" viewBox="0 0 70 70" fill="none" xmlns="http://www.w3.org/2000/svg">
<path d="M35 0.219999C28.1733 0.214064 21.4982 2.233 15.8191 6.02139C10.14 9.80979 5.71212 15.1974 3.09554 21.5028C0.478962 27.8081 -0.208733 34.7479 1.11945 41.4442C2.44764 48.1404 5.73203 54.2923 10.5571 59.1216C15.3823 63.9509 21.5313 67.2407 28.2264 68.5747C34.9215 69.9087 41.8618 69.227 48.1695 66.6159C54.4771 64.0048 59.8686 59.5816 63.6619 53.9058C67.4553 48.2301 69.48 41.5567 69.48 34.73C69.4694 25.5858 65.8343 16.8187 59.3712 10.35C52.9081 3.88129 44.1442 0.238519 35 0.219999ZM56.88 43.55C56.5806 44.5162 55.9723 45.3575 55.1485 45.9446C54.3247 46.5317 53.3311 46.8322 52.32 46.8H17.83C14.28 46.8 13.3 44.34 13.09 43.59C12.7657 42.622 12.7779 41.5729 13.1246 40.6127C13.4713 39.6525 14.1321 38.8376 15 38.3L33.06 26.9V25C33.0347 24.4847 33.1544 23.9727 33.4054 23.5219C33.6563 23.0712 34.0286 22.6999 34.48 22.45L36.05 21.38C36.2281 21.2584 36.3764 21.0981 36.4837 20.911C36.5911 20.724 36.6548 20.5151 36.67 20.3C36.6958 20.1208 36.6813 19.938 36.6277 19.7651C36.5741 19.5921 36.4827 19.4332 36.36 19.3C36.0769 19.0515 35.7393 18.8731 35.3745 18.7793C35.0096 18.6855 34.6279 18.6789 34.26 18.76C33.01 19.01 32.68 19.76 32.63 20.95V21.62C32.63 22 31.89 22.3 30.98 22.3H30.65C29.75 22.3 29.01 21.99 29.01 21.62C29.01 21.25 29.01 21.08 29.01 20.95C28.9759 20.0611 29.1513 19.1766 29.5222 18.3681C29.8932 17.5596 30.4491 16.8496 31.1452 16.2957C31.8412 15.7418 32.6578 15.3594 33.529 15.1795C34.4002 14.9996 35.3015 15.0271 36.16 15.26C37.342 15.5141 38.406 16.1541 39.1844 17.0792C39.9629 18.0043 40.4116 19.1619 40.46 20.37C40.437 21.259 40.1689 22.1243 39.6855 22.8707C39.202 23.6171 38.5219 24.2155 37.72 24.6L37.48 24.75C37.2503 24.8718 37.056 25.0509 36.9158 25.2699C36.7757 25.4889 36.6945 25.7404 36.68 26V26.86L55 38.34C55.8259 38.8964 56.4533 39.7011 56.7913 40.6378C57.1292 41.5745 57.1603 42.5945 56.88 43.55Z" fill="white"/>
</svg>
