<svg width="22" height="21" viewBox="0 0 22 21" fill="none" xmlns="http://www.w3.org/2000/svg">
<path d="M21.6305 9.29022L11.7598 0.296118C11.3266 -0.0987204 10.6732 -0.0986774 10.2402 0.296075L0.369446 9.29026C0.0223885 9.60651 -0.0922517 10.0938 0.0773024 10.5316C0.246899 10.9694 0.659828 11.2523 1.12935 11.2523H2.70586V20.2637C2.70586 20.621 2.99556 20.9106 3.35284 20.9106H8.76319C9.12047 20.9106 9.41017 20.621 9.41017 20.2637V14.7922H12.5899V20.2637C12.5899 20.621 12.8796 20.9107 13.2369 20.9107H18.647C19.0043 20.9107 19.294 20.621 19.294 20.2637V11.2523H20.8708C21.3403 11.2523 21.7532 10.9693 21.9228 10.5316C22.0922 10.0937 21.9775 9.60651 21.6305 9.29022Z" fill="var(--accent-color-gray)"/>
</svg>
