<svg width="512" height="512" viewBox="0 0 512 512" fill="none" xmlns="http://www.w3.org/2000/svg">
<g clip-path="url(#clip0)">
<path d="M495.999 268.657C487.222 268.657 480.072 261.577 480.003 252.784C479.999 252.208 479.988 251.639 479.972 251.064C479.721 242.232 486.677 234.868 495.509 234.616C504.345 234.37 511.706 241.322 511.957 250.153C511.979 250.949 511.994 251.737 512 252.533C512.069 261.405 504.899 268.657 495.999 268.657V268.657Z" fill="var(--accent-color-primary)"/>
<path d="M78.3584 440.274C-23.4835 342.076 -26.4462 180.178 71.7688 78.3205C128.387 19.6026 206.894 -6.70453 283.41 1.47889C394.531 13.3511 479.749 94.2954 504.498 194.257C506.622 202.835 501.391 211.509 492.813 213.632C484.233 215.755 475.561 210.524 473.439 201.947C451.745 114.323 377.008 43.6579 280.01 33.2937C145.417 18.9047 29.6448 125.587 32.0936 260.079C34.9374 416.333 191.925 519.263 334.77 465.752C405.279 439.361 459.676 377.816 475.408 301.398C477.19 292.743 485.65 287.173 494.305 288.954C502.96 290.736 508.531 299.196 506.749 307.85C466.017 505.686 222.729 579.48 78.3584 440.274V440.274Z" fill="var(--accent-color-primary)"/>
<path d="M303.489 266.141C306.146 262.91 307.455 258.695 307.034 254.426C306.29 246.807 304.526 246.788 270.43 212.692C264.183 206.443 254.052 206.443 247.805 212.692C241.556 218.94 241.556 229.07 247.805 235.317L252.49 240.004H144.048C135.213 240.004 128.049 247.168 128.049 256.003C128.049 264.838 135.213 272.002 144.048 272.002H252.491L247.806 276.689C237.697 286.797 244.995 304 259.118 304C263.213 304 267.306 302.438 270.43 299.313C305.294 264.449 302.753 267.04 303.489 266.141V266.141Z" fill="var(--accent-color-primary)"/>
<path d="M352.033 391.992H176.046C149.581 391.992 128.049 370.461 128.049 343.996V311.998C128.049 303.163 135.213 295.999 144.048 295.999C152.883 295.999 160.047 303.163 160.047 311.998V343.996C160.047 352.817 167.224 359.995 176.046 359.995H352.033C360.855 359.995 368.032 352.817 368.032 343.996V168.008C368.032 159.187 360.855 152.009 352.033 152.009H176.046C167.224 152.009 160.047 159.187 160.047 168.008V200.006C160.047 208.841 152.883 216.005 144.048 216.005C135.213 216.005 128.049 208.841 128.049 200.006V168.008C128.049 141.543 149.581 120.012 176.046 120.012H352.033C378.498 120.012 400.03 141.543 400.03 168.008V343.996C400.03 370.461 378.498 391.992 352.033 391.992Z" fill="var(--accent-color-primary)"/>
</g>
<defs>
<clipPath id="clip0">
<rect width="512" height="512" fill="white"/>
</clipPath>
</defs>
</svg>
