<svg width="27" height="27" viewBox="0 0 27 27" fill="none" xmlns="http://www.w3.org/2000/svg">
<path d="M22.3702 0H10.1683V16.4661H26.6344V4.26413C26.6344 1.90246 24.7319 0 22.3702 0Z" fill="#1D2028" fill-opacity="0.25"/>
<path d="M6.36339 0H4.26413C1.90246 0 0 1.90246 0 4.26413V6.36339H6.36339V0Z" fill="#1D2028" fill-opacity="0.25"/>
<path d="M6.36339 10.1683H0V16.5317H6.36339V10.1683Z" fill="#1D2028" fill-opacity="0.25"/>
<path d="M20.3366 26.6344H22.4359C24.7975 26.6344 26.7 24.7319 26.7 22.3703V20.3366H20.3366V26.6344Z" fill="#1D2028" fill-opacity="0.25"/>
<path d="M16.5317 20.3366H10.1683V26.7H16.5317V20.3366Z" fill="#1D2028" fill-opacity="0.25"/>
<path d="M0 20.3366V22.4359C0 24.7975 1.90246 26.7 4.26413 26.7H6.36339V20.3366H0Z" fill="#1D2028" fill-opacity="0.25"/>
</svg>
