<svg width="17" height="17" viewBox="0 0 17 17" fill="none" xmlns="http://www.w3.org/2000/svg">
<path d="M10.3725 6.62632C10.1711 6.42375 9.94782 6.24419 9.70678 6.09092C9.06833 5.68209 8.32611 5.46485 7.56799 5.46485C6.51574 5.46289 5.50624 5.88098 4.76349 6.62632L1.16013 10.2325C0.418643 10.9754 0.00188547 11.982 0.00122152 13.0316C-0.000172757 15.222 1.77428 16.9987 3.96463 17.0001C5.01526 17.0038 6.02382 16.5877 6.76631 15.8443L9.74077 12.8698C9.79482 12.8163 9.825 12.7432 9.82456 12.6671C9.82367 12.5106 9.69609 12.3845 9.53963 12.3854H9.42633C8.80488 12.3876 8.18897 12.2683 7.61333 12.0342C7.50727 11.9905 7.38537 12.0151 7.30457 12.0965L5.16577 14.2381C4.50163 14.9022 3.42485 14.9022 2.7607 14.2381C2.09656 13.574 2.09656 12.4972 2.7607 11.833L6.37823 8.21836C7.04184 7.55557 8.11687 7.55557 8.78048 8.21836C9.22771 8.63926 9.92532 8.63926 10.3725 8.21836C10.5649 8.02578 10.6816 7.77036 10.7011 7.49881C10.7218 7.1743 10.6021 6.85651 10.3725 6.62632Z" fill="var(--accent-color-primary)"/>
<path d="M15.8372 1.16166C14.2883 -0.38722 11.7771 -0.38722 10.2282 1.16166L7.25654 4.13045C7.17494 4.21245 7.1514 4.33577 7.19705 4.44207C7.24216 4.54867 7.3476 4.61709 7.46332 4.61486H7.56812C8.18884 4.61373 8.80376 4.73401 9.3783 4.96898C9.48436 5.01263 9.60626 4.988 9.68706 4.90666L11.8202 2.77637C12.4843 2.11223 13.5611 2.11223 14.2252 2.77637C14.8894 3.44051 14.8894 4.5173 14.2252 5.18144L11.568 7.83578L11.5454 7.86128L10.6162 8.78479C9.95261 9.44757 8.87759 9.44757 8.21397 8.78479C7.76674 8.36388 7.06914 8.36388 6.62194 8.78479C6.4283 8.97883 6.31155 9.23647 6.29332 9.50998C6.27261 9.83449 6.39228 10.1523 6.62194 10.3825C6.94983 10.7118 7.33345 10.9803 7.75506 11.1757C7.81455 11.204 7.87404 11.2267 7.93353 11.2522C7.99301 11.2777 8.05533 11.2975 8.11481 11.3202C8.1743 11.3428 8.23662 11.3626 8.2961 11.3796L8.46325 11.425C8.57655 11.4533 8.68989 11.476 8.80601 11.4958C8.9459 11.5166 9.08679 11.5298 9.22811 11.5354H9.4264H9.4434L9.61337 11.5156C9.67568 11.5128 9.74084 11.4986 9.81451 11.4986H9.91081L10.1063 11.4703L10.1969 11.4533L10.3612 11.4193H10.3924C11.0883 11.2445 11.7236 10.8842 12.2309 10.3768L15.8371 6.77065C17.386 5.22177 17.386 2.71054 15.8372 1.16166Z" fill="var(--accent-color-primary)"/>
</svg>
