<svg width="13" height="18" viewBox="0 0 13 18" fill="none" xmlns="http://www.w3.org/2000/svg">
<path d="M12.6389 6.83337H11.5555V5.38892C11.5555 2.60126 9.28769 0.333374 6.5 0.333374C3.71231 0.333374 1.44446 2.60126 1.44446 5.38892V6.83337H0.361122C0.161518 6.83337 0 6.99489 0 7.1945V16.2223C0 17.0189 0.6478 17.6667 1.44446 17.6667H11.5556C12.3522 17.6667 13 17.0189 13 16.2223V7.1945C13 6.99489 12.8385 6.83337 12.6389 6.83337ZM7.58123 14.3769C7.59251 14.4788 7.55974 14.581 7.49132 14.6576C7.4229 14.7341 7.32486 14.7778 7.22225 14.7778H5.77779C5.67518 14.7778 5.57714 14.7341 5.50872 14.6576C5.4403 14.5811 5.40749 14.4788 5.4188 14.3769L5.6466 12.3283C5.27668 12.0593 5.05558 11.6336 5.05558 11.1667C5.05558 10.3701 5.70338 9.72225 6.50003 9.72225C7.29669 9.72225 7.94449 10.3701 7.94449 11.1667C7.94449 11.6336 7.72339 12.0593 7.35346 12.3283L7.58123 14.3769ZM9.38888 6.83337H3.61112V5.38892C3.61112 3.79601 4.90709 2.50004 6.5 2.50004C8.09291 2.50004 9.38888 3.79601 9.38888 5.38892V6.83337V6.83337Z" fill="#A8A8A8"/>
</svg>
