<svg width="14" height="14" viewBox="0 0 14 14" fill="none" xmlns="http://www.w3.org/2000/svg">
<g clip-path="url(#clip0)">
<path d="M6.99705 9.90674C6.32792 9.90674 5.78357 10.4493 5.78357 11.1159C5.78357 11.7827 6.32792 12.3255 6.99705 12.3255C7.6664 12.3255 8.21075 11.7827 8.21075 11.1159C8.21075 10.4493 7.66629 9.90674 6.99705 9.90674Z" fill="#A8A8A8"/>
<path d="M9.95761 8.25906C9.16758 7.46947 8.11597 7.03442 6.99689 7.03442C5.88212 7.03442 4.83339 7.46659 4.04357 8.25122C3.72458 8.56866 3.72403 9.08586 4.04225 9.40386C4.19683 9.55866 4.40265 9.64368 4.62172 9.64368C4.83979 9.64368 5.04483 9.5591 5.1992 9.40562C5.67984 8.92796 6.31827 8.66484 6.99689 8.66484C7.67805 8.66484 8.31825 8.92962 8.79923 9.41015C8.95381 9.56451 9.15952 9.64975 9.37836 9.64975C9.59666 9.64975 9.80159 9.56517 9.95606 9.4117C10.2755 9.09422 10.2761 8.57728 9.95761 8.25906Z" fill="#A8A8A8"/>
<path d="M13.761 4.4683C11.9548 2.66655 9.55249 1.67456 6.997 1.67456C4.44494 1.67456 2.04503 2.66423 0.239384 4.4617C-0.0796105 4.77915 -0.0798313 5.29634 0.238942 5.61434C0.393415 5.76838 0.598901 5.85307 0.817526 5.85307C1.03604 5.85307 1.24131 5.76871 1.39578 5.61479C2.89248 4.12504 4.88164 3.30442 6.997 3.30442C9.11546 3.30442 11.1066 4.1267 12.6036 5.62042C12.7581 5.77456 12.9639 5.85958 13.1824 5.85958C13.4009 5.85958 13.6061 5.77478 13.7605 5.62108C14.0796 5.30338 14.0799 4.786 13.761 4.4683Z" fill="#A8A8A8"/>
<path d="M11.8111 6.41117C10.5254 5.12846 8.81575 4.42212 6.99696 4.42212C5.18149 4.42212 3.47433 5.12625 2.18974 6.40443C2.03505 6.55824 1.94992 6.76285 1.94958 6.9807C1.94958 7.19833 2.03439 7.40315 2.18886 7.55719C2.34333 7.71133 2.54893 7.79635 2.76755 7.79635C2.98585 7.79635 3.19111 7.71155 3.34581 7.55807C4.32167 6.58717 5.61841 6.05231 6.99696 6.05231C8.37839 6.05231 9.67689 6.58905 10.6534 7.56326C10.8081 7.71762 11.0136 7.80264 11.2323 7.80264C11.4507 7.80264 11.6561 7.71784 11.8104 7.56414C11.9648 7.41033 12.0502 7.20573 12.0503 6.98788C12.0505 6.77002 11.9655 6.56542 11.8111 6.41117Z" fill="#A8A8A8"/>
</g>
<defs>
<clipPath id="clip0">
<rect width="14" height="14" fill="white"/>
</clipPath>
</defs>
</svg>
