<svg width="15" height="15" viewBox="0 0 15 15" fill="none" xmlns="http://www.w3.org/2000/svg">
<g clip-path="url(#clip0)">
<path d="M7.39311 7.22554C8.38577 7.22554 9.24534 6.86952 9.94766 6.16708C10.65 5.46476 11.006 4.60543 11.006 3.61266C11.006 2.62023 10.65 1.76078 9.94755 1.05823C9.24511 0.356024 8.38566 0 7.39311 0C6.40034 0 5.541 0.356024 4.83868 1.05835C4.13635 1.76067 3.78021 2.62011 3.78021 3.61266C3.78021 4.60543 4.13635 5.46488 4.83879 6.1672C5.54123 6.8694 6.40068 7.22554 7.39311 7.22554Z" fill="var(--accent-color-primary)"/>
<path d="M13.7147 11.5343C13.6945 11.242 13.6535 10.9232 13.5932 10.5865C13.5323 10.2473 13.4539 9.9266 13.3601 9.63352C13.2631 9.3306 13.1313 9.03145 12.9683 8.74478C12.7992 8.44723 12.6005 8.18814 12.3776 7.97493C12.1445 7.75189 11.8591 7.57256 11.529 7.44176C11.2001 7.31164 10.8356 7.24572 10.4457 7.24572C10.2926 7.24572 10.1445 7.30855 9.85851 7.49474C9.6825 7.60953 9.47662 7.74228 9.24683 7.8891C9.05033 8.0143 8.78414 8.1316 8.45535 8.2378C8.13457 8.3416 7.80888 8.39424 7.48741 8.39424C7.16595 8.39424 6.84036 8.3416 6.51924 8.2378C6.1908 8.13172 5.92461 8.01442 5.72834 7.88922C5.50072 7.74376 5.29472 7.61101 5.11608 7.49463C4.83044 7.30843 4.68224 7.24561 4.52911 7.24561C4.1391 7.24561 3.77472 7.31164 3.44593 7.44187C3.11611 7.57245 2.83058 7.75178 2.59724 7.97505C2.37442 8.18837 2.17564 8.44734 2.00672 8.74478C1.84387 9.03145 1.71204 9.33048 1.61499 9.63363C1.52126 9.92672 1.44287 10.2473 1.38199 10.5865C1.32168 10.9227 1.28071 11.2416 1.26045 11.5346C1.24054 11.8216 1.23047 12.1195 1.23047 12.4204C1.23047 13.2034 1.47938 13.8373 1.97021 14.3048C2.45499 14.7661 3.09643 15.0001 3.87646 15.0001H11.0991C11.8791 15.0001 12.5203 14.7662 13.0052 14.3048C13.4961 13.8376 13.745 13.2036 13.745 12.4203C13.7449 12.118 13.7347 11.8199 13.7147 11.5343Z" fill="var(--accent-color-primary)"/>
</g>
<defs>
<clipPath id="clip0">
<rect width="15" height="15" fill="white"/>
</clipPath>
</defs>
</svg>
