<svg width="512" height="512" viewBox="0 0 512 512" fill="none" xmlns="http://www.w3.org/2000/svg">
<path d="M496 144C487.163 144 480 136.836 480 128V46C480 38.28 473.72 32 466 32H384C375.163 32 368 24.836 368 16C368 7.164 375.163 0 384 0H466C491.364 0 512 20.636 512 46V128C512 136.836 504.837 144 496 144Z" fill="var(--accent-color-primary)"/>
<path d="M16 144C7.163 144 0 136.836 0 128V46C0 20.636 20.636 0 46 0H128C136.837 0 144 7.164 144 16C144 24.836 136.837 32 128 32H46C38.28 32 32 38.28 32 46V128C32 136.836 24.837 144 16 144Z" fill="var(--accent-color-primary)"/>
<path d="M128 512H46C20.636 512 0 491.364 0 466V384C0 375.164 7.163 368 16 368C24.837 368 32 375.164 32 384V466C32 473.72 38.28 480 46 480H128C136.837 480 144 487.164 144 496C144 504.836 136.837 512 128 512Z" fill="var(--accent-color-primary)"/>
<path d="M466 512H384C375.163 512 368 504.836 368 496C368 487.164 375.163 480 384 480H466C473.72 480 480 473.72 480 466V384C480 375.164 487.163 368 496 368C504.837 368 512 375.164 512 384V466C512 491.364 491.364 512 466 512Z" fill="var(--accent-color-primary)"/>
<path d="M194 240H110C84.636 240 64 219.364 64 194V110C64 84.636 84.636 64 110 64H194C219.364 64 240 84.636 240 110V194C240 219.364 219.364 240 194 240ZM110 96C102.28 96 96 102.28 96 110V194C96 201.72 102.28 208 110 208H194C201.72 208 208 201.72 208 194V110C208 102.28 201.72 96 194 96H110Z" fill="var(--accent-color-primary)"/>
<path d="M194 448H110C84.636 448 64 427.364 64 402V318C64 292.636 84.636 272 110 272H194C219.364 272 240 292.636 240 318V402C240 427.364 219.364 448 194 448ZM110 304C102.28 304 96 310.28 96 318V402C96 409.72 102.28 416 110 416H194C201.72 416 208 409.72 208 402V318C208 310.28 201.72 304 194 304H110Z" fill="var(--accent-color-primary)"/>
<path d="M402 240H318C292.636 240 272 219.364 272 194V110C272 84.636 292.636 64 318 64H402C427.364 64 448 84.636 448 110V194C448 219.364 427.364 240 402 240ZM318 96C310.28 96 304 102.28 304 110V194C304 201.72 310.28 208 318 208H402C409.72 208 416 201.72 416 194V110C416 102.28 409.72 96 402 96H318Z" fill="var(--accent-color-primary)"/>
<path d="M422 352H384V298C384 283.664 372.337 272 358 272H298C283.663 272 272 283.664 272 298V358C272 372.336 283.663 384 298 384H352V422C352 436.336 363.663 448 378 448H422C436.337 448 448 436.336 448 422V378C448 363.664 436.337 352 422 352ZM304 304H352V352H304V304ZM416 416H384V384H416V416Z" fill="var(--accent-color-primary)"/>
<path d="M160 176H144C135.163 176 128 168.836 128 160V144C128 135.164 135.163 128 144 128H160C168.837 128 176 135.164 176 144V160C176 168.836 168.837 176 160 176Z" fill="var(--accent-color-primary)"/>
<path d="M368 176H352C343.163 176 336 168.836 336 160V144C336 135.164 343.163 128 352 128H368C376.837 128 384 135.164 384 144V160C384 168.836 376.837 176 368 176Z" fill="var(--accent-color-primary)"/>
<path d="M160 384H144C135.163 384 128 376.836 128 368V352C128 343.164 135.163 336 144 336H160C168.837 336 176 343.164 176 352V368C176 376.836 168.837 384 160 384Z" fill="var(--accent-color-primary)"/>
</svg>
