<svg viewBox="0 0 17 17" fill="none" xmlns="http://www.w3.org/2000/svg">
<path fill-rule="evenodd" clip-rule="evenodd" d="M11.7373 0.657894C14.8957 1.9601 17 5.03678 17 8.50656C17 13.1982 13.1936 17 8.5 17C3.8064 17 0 13.1982 0 8.50656C0 5.03703 2.10443 1.96005 5.26272 0.657894C5.59678 0.520161 5.97875 0.680534 6.11587 1.0161C6.25298 1.35167 6.09333 1.73535 5.75926 1.87309C3.08639 2.97511 1.30769 5.57582 1.30769 8.50656C1.30769 12.4711 4.52696 15.6864 8.5 15.6864C12.473 15.6864 15.6923 12.4711 15.6923 8.50656C15.6923 5.57558 13.9137 2.97517 11.2407 1.87309C10.9067 1.73535 10.747 1.35167 10.8841 1.0161C11.0213 0.680534 11.4032 0.520161 11.7373 0.657894ZM9.15382 10.2729V0.65678C9.15382 0.294048 8.86109 -5.72205e-06 8.49998 -5.72205e-06C8.13887 -5.72205e-06 7.84613 0.294048 7.84613 0.65678V10.2728L6.34564 8.77411C6.08957 8.51835 5.67558 8.51953 5.42097 8.77675C5.16635 9.03397 5.16753 9.44983 5.4236 9.70559L8.03899 12.3178C8.29403 12.5725 8.70599 12.5725 8.96103 12.3178L11.5764 9.70559C11.8325 9.44983 11.8337 9.03397 11.5791 8.77675C11.3244 8.51953 10.9105 8.51835 10.6544 8.77411L9.15382 10.2729Z" fill="white"/>
</svg>
