<svg width="21" height="21" viewBox="0 0 21 21" fill="none" xmlns="http://www.w3.org/2000/svg">
<g clip-path="url(#clip0)">
<path d="M18 0C17.5858 0 17.25 0.335786 17.25 0.750014V3.48974C13.3887 -0.248554 7.22804 -0.148799 3.48974 3.71245C1.72798 5.53218 0.74514 7.96715 0.750018 10.5C0.750018 10.9142 1.0858 11.25 1.50003 11.25C1.91426 11.25 2.25 10.9142 2.25 10.5C2.25093 5.94364 5.94527 2.2507 10.5017 2.25162C12.8157 2.25206 15.0231 3.22435 16.5855 4.93123L13.263 6.03896C12.8696 6.16987 12.6566 6.59496 12.7876 6.98844C12.9185 7.38193 13.3435 7.59484 13.737 7.46393L18.237 5.96395C18.5442 5.86164 18.7511 5.57371 18.75 5.24997V0.74997C18.75 0.335786 18.4142 0 18 0Z" fill="var(--theme-negative)"/>
<path d="M19.5001 9.75C19.0858 9.75 18.75 10.0858 18.75 10.5C18.7491 15.0563 15.0548 18.7493 10.4984 18.7484C8.18437 18.7479 5.97696 17.7756 4.41453 16.0688L7.73701 14.961C8.1305 14.8301 8.34341 14.405 8.2125 14.0115C8.08159 13.6181 7.6565 13.4051 7.26302 13.5361L2.76302 15.036C2.45584 15.1383 2.24899 15.4263 2.25 15.75V20.25C2.25 20.6642 2.58579 21 3.00002 21C3.41425 21 3.75003 20.6642 3.75003 20.25V17.5102C7.61133 21.2485 13.772 21.1488 17.5103 17.2875C19.272 15.4678 20.2549 13.0328 20.25 10.5C20.2501 10.0858 19.9143 9.75 19.5001 9.75Z" fill="var(--theme-negative)"/>
</g>
<defs>
<clipPath id="clip0">
<rect width="21" height="21" fill="var(--theme-negative)"/>
</clipPath>
</defs>
</svg>
