<svg id="Capa_1" enable-background="new 0 0 509.12 509.12" height="512" viewBox="0 0 509.12 509.12" width="512" xmlns="http://www.w3.org/2000/svg"><path d="m423.87 64.03c-41.56-36.97-95.28-60.59-154.31-64.03v57.88c43.13 3.25 82.43 20.44 113.4 47.06z"/><path d="m451.24 239.56h57.88c-3.44-59.03-27.06-112.75-64.03-154.31l-40.91 40.91c26.62 30.97 43.81 70.27 47.06 113.4z"/><path d="m57.88 269.56h-57.88c3.44 59.03 27.06 112.75 64.03 154.31l40.91-40.91c-26.62-30.97-43.81-70.27-47.06-113.4z"/><path d="m104.94 126.16-40.91-40.91c-36.97 41.56-60.59 95.28-64.03 154.31h57.88c3.25-43.13 20.44-82.43 47.06-113.4z"/><path d="m239.56 57.88v-57.88c-59.03 3.44-112.75 27.06-154.31 64.03l40.91 40.91c30.97-26.62 70.27-43.81 113.4-47.06z"/><path d="m85.25 445.09c41.56 36.97 95.28 60.59 154.31 64.03v-57.88c-43.13-3.25-82.43-20.44-113.4-47.06z"/><path d="m269.56 451.24v57.88c59.03-3.44 112.75-27.06 154.31-64.03l-40.91-40.91c-30.97 26.62-70.27 43.81-113.4 47.06z"/><path d="m404.18 382.96 40.91 40.91c36.97-41.56 60.59-95.28 64.03-154.31h-57.88c-3.25 43.13-20.44 82.43-47.06 113.4z"/><path d="m421.81 254.56c0-92.22-75.03-167.25-167.25-167.25s-167.25 75.03-167.25 167.25 75.03 167.25 167.25 167.25 167.25-75.03 167.25-167.25zm-147.59 85.58h-.38-4.28v19.24c0 8.29-6.72 15-15 15s-15-6.71-15-15v-19.24l-6.86-.3c-17.29-.13-33.54-7.82-44.61-21.1-5.3-6.36-4.44-15.82 1.93-21.12 6.241-5.209 15.671-4.567 21.12 1.92 5.4 6.48 13.34 10.54 21.78 10.6h41.14c11.316.02 20.44-8.995 20.44-20.29 0-11.19-9.1-20.29-20.29-20.29-14.521 0-23.964 0-39.3 0-27.73 0-50.29-22.56-50.29-50.29 0-27.74 22.461-50.457 50.66-50.29h4.28v-19.24c0-8.29 6.72-15 15-15s15 6.71 15 15v19.24h3.43c21.026.148 39.59 11.853 49.15 27.63 4.46 6.98 2.42 16.25-4.57 20.71-6.543 4.174-15.848 2.967-20.91-4.88-5.23-8.18-14.17-13.11-23.89-13.19h-37.71c-11.098-.122-20.44 8.597-20.44 20.02 0 11.19 9.1 20.29 20.29 20.29h39.3c27.73 0 50.29 22.56 50.29 50.29 0 27.771-22.45 50.29-50.28 50.29z"/></svg>