<svg width="19" height="22" viewBox="0 0 19 22" fill="none" xmlns="http://www.w3.org/2000/svg">
<path d="M13.3132 14.0468C14.3302 12.6331 14.9554 11.0086 15.1506 9.29383L9.49988 7.68701L3.84912 9.29383C4.04425 11.0085 4.66949 12.6331 5.68655 14.0468C6.67679 15.4233 7.99096 16.5306 9.49988 17.2631C11.0088 16.5306 12.323 15.4233 13.3132 14.0468Z" fill="var(--accent-color-primary)"/>
<path d="M9.50008 6.37606L15.217 8.00172V5.37956L9.50008 3.75391L3.7832 5.37956V8.00172L9.50008 6.37606Z" fill="var(--accent-color-primary)"/>
<path d="M10.1304 0V2.62216L16.4778 4.42714V8.12714C16.4778 10.5348 15.7375 12.8365 14.3369 14.7835C13.2419 16.3054 11.7936 17.5346 10.1304 18.3583V21.1121C12.642 20.1334 14.7975 18.462 16.3842 16.2564C18.0954 13.8777 18.9999 11.0667 18.9999 8.12714V2.52215L10.1304 0Z" fill="var(--accent-color-primary)"/>
<path d="M8.86957 18.3583C7.2063 17.5346 5.75799 16.3053 4.66313 14.7834C3.26249 12.8365 2.52215 10.5348 2.52215 8.1271V4.42709L8.86957 2.62212V0L0 2.52215V8.1271C0 11.0666 0.904528 13.8777 2.61573 16.2563C4.20246 18.462 6.35801 20.1333 8.86957 21.1121V18.3583Z" fill="var(--accent-color-primary)"/>
</svg>
