<?xml version="1.0" encoding="UTF-8" standalone="no"?>
<svg
   xmlns:dc="http://purl.org/dc/elements/1.1/"
   xmlns:cc="http://creativecommons.org/ns#"
   xmlns:rdf="http://www.w3.org/1999/02/22-rdf-syntax-ns#"
   xmlns:svg="http://www.w3.org/2000/svg"
   xmlns="http://www.w3.org/2000/svg"
   xmlns:sodipodi="http://sodipodi.sourceforge.net/DTD/sodipodi-0.dtd"
   xmlns:inkscape="http://www.inkscape.org/namespaces/inkscape"
   height="453pt"
   viewBox="0 -28 453.99791 453"
   width="453pt"
   version="1.1"
   id="svg6"
   sodipodi:docname="share.svg"
   inkscape:version="0.92.1 r15371">
  <metadata
     id="metadata12">
    <rdf:RDF>
      <cc:Work
         rdf:about="">
        <dc:format>image/svg+xml</dc:format>
        <dc:type
           rdf:resource="http://purl.org/dc/dcmitype/StillImage" />
      </cc:Work>
    </rdf:RDF>
  </metadata>
  <defs
     id="defs10" />
  <sodipodi:namedview
     pagecolor="#ffffff"
     bordercolor="#666666"
     borderopacity="1"
     objecttolerance="10"
     gridtolerance="10"
     guidetolerance="10"
     inkscape:pageopacity="0"
     inkscape:pageshadow="2"
     inkscape:window-width="1920"
     inkscape:window-height="1009"
     id="namedview8"
     showgrid="false"
     inkscape:zoom="0.39072848"
     inkscape:cx="302"
     inkscape:cy="302"
     inkscape:window-x="1600"
     inkscape:window-y="24"
     inkscape:window-maximized="1"
     inkscape:current-layer="svg6" />
  <path
     d="m345.375 3.410156c-2.863281-2.847656-7.160156-3.695312-10.890625-2.144531s-6.164063 5.195313-6.164063 9.234375v53.359375c-54.011718 2.148437-81.058593 24.539063-85.191406 28.261719-27.25 22.363281-45.855468 53.527344-52.613281 88.121094-3.378906 16.714843-3.984375 33.871093-1.785156 50.78125l.007812.058593c.019531.148438.042969.300781.066407.449219l2.125 12.214844c.714843 4.113281 3.914062 7.351562 8.019531 8.117187 4.109375.765625 8.257812-1.105469 10.40625-4.6875l6.367187-10.613281c19.5625-32.527344 43.941406-54.089844 72.46875-64.085938 12.867188-4.550781 26.5-6.546874 40.128906-5.882812v55.265625c0 4.046875 2.441407 7.699219 6.183594 9.242187 3.746094 1.546876 8.050782.679688 10.90625-2.191406l105.675782-106.210937c3.894531-3.914063 3.878906-10.246094-.035157-14.140625zm2.949219 194.214844v-40.027344c0-4.90625-3.5625-9.089844-8.410157-9.871094-8.554687-1.378906-31.371093-3.570312-58.335937 5.878907-28.765625 10.078125-53.652344 29.910156-74.148437 59.050781-.058594-9.574219.847656-19.132812 2.707031-28.527344 6.078125-30.730468 21.515625-56.542968 45.878906-76.710937.214844-.175781.417969-.359375.617187-.554688.699219-.648437 26.097657-23.578125 81.609376-23.164062h.074218c5.523438 0 10.003906-4.480469 10.007813-10.003907v-39.136718l81.535156 81.125zm0 0"
     id="path2"
     style="fill:#ffffff" />
  <path
     d="m417.351562 294.953125c-5.519531 0-10 4.476563-10 10v42.261719c-.015624 16.5625-13.4375 29.980468-30 30h-327.351562c-16.5625-.019532-29.980469-13.4375-30-30v-238.242188c.019531-16.5625 13.4375-29.980468 30-30h69.160156c5.523438 0 10-4.476562 10-10 0-5.523437-4.476562-10-10-10h-69.160156c-27.601562.03125-49.96875 22.398438-50 50v238.242188c.03125 27.601562 22.398438 49.96875 50 50h327.351562c27.601563-.03125 49.96875-22.398438 50-50v-42.261719c0-5.523437-4.476562-10-10-10zm0 0"
     id="path4"
     style="fill:#ffffff" />
</svg>
