<svg viewBox="0 0 17 17" fill="none" xmlns="http://www.w3.org/2000/svg">
<path fill-rule="evenodd" clip-rule="evenodd" d="M11.7373 16.342C14.8957 15.0398 17 11.9631 17 8.49339C17 3.80177 13.1936 0 8.5 0C3.8064 0 0 3.80177 0 8.49339C0 11.9629 2.10443 15.0398 5.26272 16.342C5.59678 16.4797 5.97875 16.3194 6.11587 15.9838C6.25298 15.6482 6.09333 15.2645 5.75926 15.1268C3.08639 14.0248 1.30769 11.4241 1.30769 8.49339C1.30769 4.52891 4.52696 1.31356 8.5 1.31356C12.473 1.31356 15.6923 4.52891 15.6923 8.49339C15.6923 11.4243 13.9137 14.0247 11.2407 15.1268C10.9067 15.2645 10.747 15.6482 10.8841 15.9838C11.0213 16.3194 11.4032 16.4797 11.7373 16.342ZM9.15388 6.72729V16.3432C9.15388 16.7059 8.86114 17 8.50004 17C8.13893 17 7.84619 16.7059 7.84619 16.3432V6.72734L6.3457 8.22602C6.08963 8.48177 5.67564 8.48059 5.42103 8.22337C5.16641 7.96615 5.16759 7.5503 5.42366 7.29454L8.03904 4.68233C8.29408 4.4276 8.70605 4.4276 8.96108 4.68233L11.5765 7.29454C11.8325 7.5503 11.8337 7.96615 11.5791 8.22337C11.3245 8.48059 10.9105 8.48177 10.6544 8.22602L9.15388 6.72729Z" fill="white"/>
</svg>
