<svg width="17" height="17" viewBox="0 0 17 17" fill="none" xmlns="http://www.w3.org/2000/svg">
<g clip-path="url(#clip0)">
<path d="M16.3928 7.89273H6.59236C6.26311 6.59909 4.94749 5.8173 3.65381 6.14654C2.79589 6.3649 2.12598 7.03481 1.90762 7.89273H0.607154C0.271827 7.89273 0 8.16455 0 8.49988C0 8.83521 0.271827 9.107 0.607154 9.107H1.90766C2.2369 10.4006 3.55253 11.1824 4.84621 10.8532C5.70413 10.6348 6.37404 9.96492 6.59239 9.107H16.3928C16.7282 9.107 17 8.83517 17 8.49985C17 8.16452 16.7282 7.89273 16.3928 7.89273Z" fill="var(--accent-color-primary)"/>
<path d="M16.3928 1.82095H14.4852C14.156 0.527311 12.8404 -0.25448 11.5467 0.0747642C10.6888 0.293122 10.0188 0.963031 9.80049 1.82095H0.607154C0.271827 1.82095 0 2.09278 0 2.42811C0 2.76343 0.271827 3.03526 0.607154 3.03526H9.80049C10.1297 4.3289 11.4454 5.11069 12.739 4.78145C13.597 4.56309 14.2669 3.89318 14.4852 3.03526H16.3928C16.7282 3.03526 17 2.76343 17 2.42811C17 2.09278 16.7282 1.82095 16.3928 1.82095Z" fill="var(--accent-color-primary)"/>
<path d="M16.3928 13.964H13.2709C12.9417 12.6704 11.626 11.8886 10.3324 12.2178C9.47445 12.4362 8.80454 13.1061 8.58618 13.964H0.607154C0.271827 13.964 0 14.2358 0 14.5711C0 14.9064 0.271827 15.1783 0.607154 15.1783H8.58622C8.91546 16.4719 10.2311 17.2537 11.5248 16.9245C12.3827 16.7061 13.0526 16.0362 13.2709 15.1783H16.3928C16.7282 15.1783 17 14.9065 17 14.5711C17 14.2358 16.7282 13.964 16.3928 13.964Z" fill="var(--accent-color-primary)"/>
</g>
<defs>
<clipPath id="clip0">
<rect width="17" height="17" fill="white"/>
</clipPath>
</defs>
</svg>
