<svg width="25" height="24" viewBox="0 0 25 24" fill="none" xmlns="http://www.w3.org/2000/svg">
<g clip-path="url(#clip0)">
<path d="M12.329 11.5609C13.9172 11.5609 15.2925 10.9912 16.4163 9.86733C17.54 8.74362 18.1096 7.36868 18.1096 5.78025C18.1096 4.19237 17.54 2.81725 16.4161 1.69317C15.2922 0.569639 13.9171 0 12.329 0C10.7405 0 9.3656 0.569639 8.24188 1.69335C7.11816 2.81707 6.54834 4.19218 6.54834 5.78025C6.54834 7.36868 7.11816 8.7438 8.24207 9.86751C9.36597 10.991 10.7411 11.5609 12.329 11.5609Z" fill="var(--accent-color-primary)"/>
<path d="M22.4435 18.4549C22.4111 17.9872 22.3456 17.4771 22.2491 16.9384C22.1517 16.3957 22.0262 15.8826 21.8761 15.4137C21.721 14.929 21.5101 14.4504 21.2493 13.9917C20.9787 13.5156 20.6608 13.1011 20.3041 12.7599C19.9312 12.4031 19.4745 12.1161 18.9464 11.9069C18.4202 11.6987 17.837 11.5932 17.2131 11.5932C16.9681 11.5932 16.7312 11.6937 16.2736 11.9916C15.992 12.1753 15.6626 12.3877 15.2949 12.6226C14.9805 12.8229 14.5546 13.0106 14.0286 13.1805C13.5153 13.3466 12.9942 13.4308 12.4799 13.4308C11.9655 13.4308 11.4446 13.3466 10.9308 13.1805C10.4053 13.0108 9.97937 12.8231 9.66534 12.6228C9.30115 12.3901 8.97156 12.1777 8.68573 11.9915C8.2287 11.6935 7.99158 11.593 7.74658 11.593C7.12256 11.593 6.53955 11.6987 6.01349 11.907C5.48578 12.116 5.02893 12.4029 4.65558 12.7601C4.29907 13.1014 3.98102 13.5158 3.71075 13.9917C3.4502 14.4504 3.23926 14.9288 3.08398 15.4139C2.93402 15.8828 2.80859 16.3957 2.71118 16.9384C2.61469 17.4764 2.54913 17.9867 2.51672 18.4554C2.48486 18.9146 2.46875 19.3913 2.46875 19.8726C2.46875 21.1255 2.867 22.1397 3.65234 22.8877C4.42798 23.6257 5.45428 24.0002 6.70233 24.0002H18.2585C19.5065 24.0002 20.5325 23.6259 21.3083 22.8877C22.0938 22.1402 22.4921 21.1258 22.4921 19.8725C22.4919 19.3889 22.4756 18.9119 22.4435 18.4549Z" fill="var(--accent-color-primary)"/>
</g>
<defs>
<clipPath id="clip0">
<rect width="24" height="24" fill="white" transform="translate(0.5)"/>
</clipPath>
</defs>
</svg>
