<svg width="31" height="30" viewBox="0 0 31 30" fill="none" xmlns="http://www.w3.org/2000/svg">
<path d="M7.24437 5.66456L19.6026 2.29128L18.9481 0.96843C18.5199 0.108576 17.4756 -0.246506 16.6157 0.181681L5.55251 5.66456H7.24437Z" fill="#9F9F9F"/>
<path d="M23.4388 2.38876C23.2857 2.38876 23.1325 2.40965 22.9793 2.45142L20.0761 3.24514L11.2094 5.66456H21.2735H25.6598L25.1168 3.67332C24.9079 2.89702 24.2047 2.38876 23.4388 2.38876Z" fill="#9F9F9F"/>
<path d="M27.4736 6.88297H27.0767H26.5371H25.9975H21.8793H6.74655H4.76227H3.0913H2.78147H1.74408C1.19405 6.88297 0.7032 7.13709 0.382931 7.53743C0.236721 7.72193 0.125323 7.93429 0.0626614 8.16752C0.0243683 8.31373 0 8.46691 0 8.62356V8.83243V10.8167V28.0173C0 28.9781 0.779787 29.7579 1.7406 29.7579H27.4701C28.4309 29.7579 29.2107 28.9781 29.2107 28.0173V23.161H18.882C17.2493 23.161 15.923 21.8347 15.923 20.202V18.6076V18.068V17.5284V16.3309C15.923 15.5302 16.2432 14.8027 16.7619 14.2701C17.2214 13.7966 17.8376 13.4763 18.5269 13.3963C18.6418 13.3824 18.7601 13.3754 18.8785 13.3754H27.7625H28.3021H28.8417H29.2107V8.62356C29.2141 7.66275 28.4344 6.88297 27.4736 6.88297Z" fill="#9F9F9F"/>
<path d="M30.4326 15.0394C30.2585 14.8793 30.0531 14.7574 29.8234 14.6774C29.6458 14.6182 29.4578 14.5834 29.2594 14.5834H29.2142H29.1793H28.6398H26.6938H18.882C17.9211 14.5834 17.1414 15.3632 17.1414 16.324V17.1908V17.7304V18.27V20.1985C17.1414 21.1593 17.9211 21.9391 18.882 21.9391H29.2142H29.2594C29.4578 21.9391 29.6458 21.9043 29.8234 21.8451C30.0531 21.7685 30.2585 21.6432 30.4326 21.4831C30.7807 21.1663 31 20.7068 31 20.1986V16.324C31 15.8157 30.7807 15.3562 30.4326 15.0394ZM22.5163 18.6076C22.5163 19.088 22.1265 19.4779 21.646 19.4779H21.0682C20.5878 19.4779 20.1979 19.088 20.1979 18.6076V18.0297C20.1979 17.7513 20.3267 17.5041 20.5321 17.3474C20.6818 17.2325 20.8663 17.1595 21.0682 17.1595H21.2144H21.646C22.1265 17.1595 22.5163 17.5493 22.5163 18.0297V18.6076Z" fill="#9F9F9F"/>
</svg>
