<svg width="16" height="16" viewBox="0 0 16 16" fill="none" xmlns="http://www.w3.org/2000/svg">
<path d="M15.5043 10.0463L10.7855 2.48376C10.1814 1.5155 9.14001 0.9375 8 0.9375C6.85999 0.9375 5.8186 1.5155 5.21448 2.48376L0.495728 10.0463C0.171387 10.566 0 11.166 0 11.7812C0 13.5906 1.47192 15.0625 3.28125 15.0625H12.7188C14.5281 15.0625 16 13.5906 16 11.7812C16 11.166 15.8286 10.566 15.5043 10.0463ZM12.7188 14.125H3.28125C1.98889 14.125 0.9375 13.0736 0.9375 11.7812C0.9375 11.3417 1.05981 10.9133 1.29114 10.5426L6.00989 2.9801C6.44165 2.28809 7.18555 1.875 8 1.875C8.81445 1.875 9.55835 2.28809 9.99011 2.9801L14.7089 10.5426C14.9402 10.9133 15.0625 11.3417 15.0625 11.7812C15.0625 13.0736 14.0111 14.125 12.7188 14.125Z" fill="#FBC400"/>
<path d="M9.19482 3.47632C8.93542 3.06067 8.48877 2.8125 8 2.8125C7.51123 2.8125 7.06458 3.06067 6.80518 3.47632L2.08655 11.0388C1.94812 11.2606 1.875 11.5173 1.875 11.7812C1.875 12.5566 2.50586 13.1875 3.28125 13.1875H12.7188C13.4941 13.1875 14.125 12.5566 14.125 11.7812C14.125 11.5173 14.0519 11.2606 13.9136 11.0388L9.19482 3.47632ZM8.46875 11.2812H7.53125V10.3438H8.46875V11.2812ZM8.46875 9.40625H7.53125V6.09375H8.46875V9.40625Z" fill="#FBC400"/>
</svg>
