<svg viewBox="0 0 300 291" fill="none" xmlns="http://www.w3.org/2000/svg">
<path d="M293.588 215.182L195.377 28.308C186.438 11.299 168.948 0.732971 149.733 0.732971C130.518 0.732971 113.029 11.299 104.089 28.308L5.87906 215.182C-2.46994 231.069 -1.89094 250.477 7.38806 265.829C16.6651 281.189 33.5771 290.732 51.5231 290.732H247.945C265.888 290.732 282.8 281.19 292.078 265.833C301.357 250.477 301.936 231.069 293.588 215.182ZM266.4 250.319C262.519 256.743 255.447 260.733 247.944 260.733H51.5221C44.0171 260.733 36.9461 256.743 33.0651 250.316C29.1851 243.897 28.9441 235.782 32.4351 229.139L130.646 42.263C134.383 35.151 141.698 30.732 149.733 30.732C157.768 30.732 165.083 35.15 168.82 42.263L267.031 229.139C270.522 235.782 270.281 243.897 266.4 250.319Z" fill="#FD9630"/>
<path d="M144.037 197.424H155.429L166.545 83.288H132.92L144.037 197.424Z" fill="#FD9630"/>
<path d="M149.733 208.021C140.753 208.021 133.482 215.293 133.482 224.273C133.482 233.244 140.753 240.524 149.733 240.524C158.712 240.524 165.984 233.244 165.984 224.273C165.984 215.294 158.713 208.021 149.733 208.021Z" fill="#FD9630"/>
</svg>
