<svg width="148" height="148" viewBox="0 0 148 148" fill="none" xmlns="http://www.w3.org/2000/svg">
<path d="M68.3501 145.449C45.1497 143.132 24.1167 130.908 12.7771 113.152C8.15089 105.908 4.57661 96.76 3.45156 89.2841C2.94702 85.9315 2.60287 78.1196 2.7622 73.6362C3.33868 57.414 7.11996 44.8327 14.7681 33.6897C17.4459 29.7882 19.195 27.7422 22.9606 24.1069C28.9789 18.2967 35.0318 14.1937 43.6102 10.1098C51.2645 6.46574 57.4845 4.56543 65.5766 3.39872C69.7017 2.80396 79.119 2.86259 83.4145 3.50958C97.1259 5.57539 109.192 11.4531 120.703 21.6732C132.989 32.5823 141.135 45.3232 144.108 58.2808C145.224 63.1486 145.424 65.0689 145.437 71.0519C145.45 77.1169 145.294 78.7821 144.207 84.1981L143.514 87.6538L140.934 88.1548C133.884 89.524 124.855 91.975 119.161 94.0654C114.768 95.6784 113.876 96.0431 107.513 98.8295C101.409 101.502 98.6431 102.559 95.3353 103.481C88.4217 105.41 81.0406 105.573 76.0543 103.908C69.3433 101.668 64.3239 96.3113 63.2319 90.2254C62.8653 88.1817 63.0848 84.1991 63.6824 82.0584C65.1202 76.9075 68.2988 71.6011 73.224 66.1299C74.1351 65.1178 74.9 64.3091 74.9238 64.333C74.947 64.3555 75.2419 66.5566 75.5779 69.2215C75.9139 71.8864 76.205 74.0903 76.2249 74.1192C76.2448 74.1482 77.1011 73.8739 78.1279 73.5103C84.1417 71.3802 90.3399 70.9888 96.645 72.341C99.7296 73.0025 105.418 74.8004 110.952 76.863C113.087 77.659 115.484 78.444 116.277 78.6074C120.057 79.3862 126.234 78.6172 130.172 76.8787C131.245 76.4048 131.326 76.3121 131.612 75.2217C132 73.7448 132.004 69.5449 131.618 67.6853L131.323 66.2568L126.961 63.348C100.687 45.827 78.6442 35.4454 59.9099 31.7685C54.8151 30.7685 45.9386 29.9107 45.9386 30.4183C45.9386 30.5401 45.8852 30.7747 45.8197 30.9399C45.7337 31.1577 48.2932 32.4792 55.1339 35.7489C60.322 38.2287 64.5687 40.306 64.5709 40.3652C64.5734 40.4245 62.7531 41.0886 60.5264 41.841C54.1823 43.9847 49.93 45.679 45.604 47.7863C42.0257 49.5295 36.8471 52.5388 36.8429 52.8774C36.842 52.949 38.7795 53.1839 41.1485 53.4L45.4558 53.7929L43.0877 56.2851C39.895 59.6451 38.0464 61.7964 33.5445 67.391L29.7321 72.1286L33.0648 72.1879C34.8978 72.2205 36.3954 72.3175 36.3928 72.4032C36.3902 72.4889 34.8515 77.6467 32.9733 83.8647C31.0951 90.0828 29.5774 95.1892 29.6005 95.2123C29.6237 95.2348 31.2254 94.9109 33.16 94.4915C35.4489 93.9952 36.7268 93.8062 36.8186 93.9503C36.8962 94.0722 37.2956 99.0964 37.7063 105.115C38.117 111.134 38.4851 116.095 38.5243 116.138C38.5636 116.182 39.958 115.092 41.623 113.716C43.2881 112.34 44.7156 111.214 44.7953 111.215C44.8749 111.216 47.6359 115.282 50.9308 120.249C54.2258 125.216 56.9936 129.286 57.0816 129.292C57.1695 129.298 58.4576 127.891 59.944 126.166C62.1066 123.657 62.6992 123.087 62.9099 123.313C63.0547 123.469 64.1611 124.807 65.3685 126.288C66.5759 127.768 68.7139 130.107 70.1196 131.485L72.6754 133.991L78.1116 133.995C86.5583 134.001 91.9138 134.876 99.0276 137.415L101.195 138.189L100.47 138.717C96.194 141.838 90.7729 143.903 83.8805 145.038C81.7083 145.396 79.9284 145.51 75.6708 145.566C72.681 145.605 69.386 145.553 68.3487 145.449L68.3501 145.449Z" fill="#057A8E"/>
</svg>
