<svg width="249" height="54" viewBox="0 0 249 54" fill="none" xmlns="http://www.w3.org/2000/svg">
  <path d="M25.0775 53.9669C16.2141 53.0799 8.14086 48.4407 3.81222 41.7205C2.06015 38.9915 0.685982 35.512 0.239376 32.6807C0.0392819 30.7088 -0.0410235 28.7267 -0.00110437 26.7451C0.205021 20.6049 1.6479 15.8633 4.56802 11.6333C5.46998 10.3052 6.53131 9.09098 7.72861 8.0174C10.0171 5.79995 12.6799 3.99875 15.5957 2.69586C18.2544 1.43096 21.0932 0.579564 24.0125 0.171536C26.2863 -0.05579 28.5778 -0.0443559 30.8491 0.205648C36.0709 0.990234 40.6744 3.20754 45.1061 7.06225C49.5378 10.917 52.9045 16.0338 54.0382 20.946C54.4848 22.7881 54.5535 23.5045 54.5535 25.79C54.6166 27.464 54.4549 29.1388 54.0726 30.7704L53.7977 32.0667L52.8358 32.2714C50.0057 32.8217 47.2166 33.5625 44.4877 34.4887C42.8387 35.1027 42.4952 35.2391 40.056 36.2966C37.6169 37.3541 36.6549 37.7293 35.3838 38.0705C32.7385 38.7868 29.9215 38.8551 28.032 38.241C25.4554 37.3882 23.5316 35.3415 23.1193 33.0559C22.9876 32.0194 23.0458 30.9677 23.2911 29.9517C23.8408 28.0073 25.0432 25.9947 26.9327 23.9138L27.5854 23.2316C27.5854 23.2316 27.7228 24.0844 27.8259 25.0736C27.9289 26.0629 28.0664 26.9157 28.0664 26.9498L28.8222 26.711C31.091 25.8996 33.5455 25.7458 35.8991 26.2676C37.7555 26.7171 39.5801 27.2869 41.3615 27.9732C42.186 28.2802 43.0792 28.5872 43.3884 28.6554C45.1929 28.8943 47.0289 28.659 48.7133 27.9732C49.1255 27.8026 49.1599 27.7685 49.263 27.3592C49.4006 26.4089 49.4006 25.444 49.263 24.4937L49.1599 23.982L47.4765 22.8563C37.4451 16.2385 28.9939 12.2815 21.8482 10.917C19.89 10.5076 16.489 10.2006 16.489 10.4053C16.489 10.6099 16.489 10.5417 16.4546 10.5758C16.4203 10.6099 17.4165 11.1557 20.0275 12.4179L23.6347 14.1576C23.1306 14.3697 22.6144 14.5519 22.0887 14.7034C20.136 15.3176 18.2302 16.07 16.3859 16.9549C15.0117 17.6371 13.0192 18.7628 13.0192 18.8993L14.6682 19.1039L16.3172 19.2404L15.424 20.1955C14.1872 21.4577 13.5001 22.2764 11.7481 24.3914L10.3052 26.1993H11.5763C12.0021 26.1995 12.4272 26.2338 12.8474 26.3017C12.8474 26.3358 12.2634 28.2802 11.5419 30.634C10.8205 32.9877 10.2365 34.9321 10.2708 34.9321L11.6106 34.6592C12.5039 34.4545 12.9848 34.3863 13.0192 34.4545C13.0535 34.5228 13.1909 36.399 13.3627 38.6845C13.5345 40.97 13.6376 42.8462 13.6719 42.8462C14.084 42.5688 14.4745 42.2609 14.84 41.9252L16.0767 41.0041C16.1111 41.0041 17.1417 42.5392 18.4128 44.4154C19.6839 46.2916 20.7145 47.8266 20.7489 47.8266C21.1499 47.4738 21.5178 47.0856 21.8482 46.6668C22.6727 45.7117 22.9132 45.4729 22.9819 45.5752L23.9438 46.7009C24.3904 47.2467 25.2149 48.1336 25.7646 48.6794L26.7265 49.6346H28.7878C32.0515 49.6346 34.0784 49.9416 36.7923 50.9309L37.6169 51.2038L37.342 51.4084C35.7274 52.6024 33.6318 53.387 31.0208 53.7963C29.973 53.9335 28.9172 54.0019 27.8602 54.001C26.7265 54.0351 25.4554 54.001 25.0775 53.9669V53.9669Z" fill="#29CCC4"/>
  <g id="title">
    <path id="Vector_2" d="M80.3547 37.0461H95.6424V45.2672H68.846V37.5578L83.9963 16.9198H68.846V8.73279H95.6424V16.4422L80.3547 37.0461Z" fill="white"/>
    <path id="Vector_3" d="M111.411 8.73279V45.2672H101.173V8.73279H111.411Z" fill="white"/>
    <path id="Vector_4" d="M127.489 37.4896H138.929V45.2672H117.251V8.73279H127.489V37.4896Z" fill="white"/>
    <path id="Vector_5" d="M170.432 26.9488C169.335 28.8122 167.726 30.3268 165.794 31.3152C163.698 32.4068 161.19 32.9526 158.202 32.9526H153.117V45.2672H142.88V8.73279H158.202C161.156 8.73279 163.664 9.24447 165.725 10.2678C167.694 11.201 169.325 12.7137 170.397 14.6001C171.5 16.5187 172.047 18.7029 171.978 20.9109C172.005 23.0234 171.471 25.1057 170.432 26.9488V26.9488ZM161.534 20.9109C161.534 18.2502 160.091 16.9198 157.205 16.9198H153.117V24.868H157.205C160.091 24.868 161.534 23.5376 161.534 20.9109Z" fill="white"/>
    <path id="Vector_6" d="M199.392 39.3316H186.338L184.345 45.2672H173.592L187.025 8.73279H198.808L212.172 45.2672H201.351L199.392 39.3316ZM196.816 31.554L192.865 19.717L188.949 31.554H196.816Z" fill="white"/>
    <path id="Vector_7" d="M249 8.73279L236.048 33.669V45.2672H225.742V33.669L212.791 8.73279H224.505L230.964 22.8212L237.457 8.73279H249Z" fill="white"/>
  </g>
</svg>