<svg width="35" height="35" :class="b('icon')" viewBox="0 0 60 60" fill="none" xmlns="http://www.w3.org/2000/svg">
  <path d="M27.581 59.3183C17.8371 58.3431 8.96178 53.2431 4.2031 45.8552C2.27697 42.8551 0.766277 39.0299 0.275302 35.9173C0.0553293 33.7495 -0.0329542 31.5705 0.0109308 29.3921C0.237534 22.6418 1.82376 17.4292 5.03398 12.7789C6.02555 11.3189 7.19232 9.98405 8.50857 8.80381C11.0244 6.36606 13.9518 4.38592 17.1572 2.95359C20.0801 1.56302 23.2009 0.627044 26.4102 0.178479C28.9099 -0.071431 31.4291 -0.058861 33.926 0.21598C39.6666 1.07851 44.7274 3.5161 49.5994 7.75377C54.4714 11.9915 58.1726 17.6166 59.4189 23.0168C59.9099 25.0419 59.9854 25.8295 59.9854 28.3421C60.0548 30.1824 59.877 32.0236 59.4567 33.8173L59.1545 35.2423L58.097 35.4674C54.9858 36.0723 51.9196 36.8867 48.9196 37.905C47.1068 38.58 46.7291 38.7299 44.0476 39.8925C41.3662 41.055 40.3086 41.4675 38.9112 41.8426C36.0031 42.6301 32.9063 42.7051 30.829 42.03C27.9965 41.0925 25.8815 38.8425 25.4283 36.3298C25.2835 35.1903 25.3475 34.0342 25.6172 32.9172C26.2215 30.7796 27.5433 28.5671 29.6205 26.2795L30.3381 25.5295C30.3381 25.5295 30.4891 26.467 30.6025 27.5545C30.7157 28.6421 30.8669 29.5796 30.8669 29.6171L31.6978 29.3546C34.192 28.4626 36.8903 28.2935 39.4777 28.8671C41.5186 29.3613 43.5244 29.9877 45.4828 30.7422C46.3892 31.0797 47.3711 31.4172 47.7111 31.4921C49.6948 31.7548 51.7132 31.4961 53.565 30.7422C54.0181 30.5546 54.0559 30.5171 54.1693 30.0672C54.3206 29.0225 54.3206 27.9617 54.1693 26.917L54.0559 26.3544L52.2053 25.1169C41.1773 17.8417 31.8865 13.4915 24.0309 11.9915C21.8782 11.5414 18.1393 11.2039 18.1393 11.4289C18.1393 11.6539 18.1393 11.5789 18.1015 11.6164C18.0638 11.6539 19.1589 12.2539 22.0293 13.6415L25.9949 15.554C25.4407 15.7872 24.8732 15.9875 24.2953 16.154C22.1486 16.8293 20.0535 17.6564 18.0259 18.6292C16.5152 19.3792 14.3248 20.6167 14.3248 20.7668L16.1376 20.9917L17.9504 21.1418L16.9685 22.1918C15.6088 23.5794 14.8534 24.4794 12.9274 26.8045L11.3411 28.792H12.7385C13.2066 28.7923 13.674 28.83 14.1359 28.9046C14.1359 28.9421 13.4939 31.0797 12.7007 33.6673C11.9076 36.2548 11.2656 38.3924 11.3033 38.3924L12.7762 38.0924C13.7583 37.8674 14.2869 37.7924 14.3248 37.8674C14.3625 37.9424 14.5135 40.005 14.7024 42.5176C14.8913 45.0302 15.0046 47.0928 15.0423 47.0928C15.4954 46.7878 15.9246 46.4493 16.3265 46.0803L17.686 45.0676C17.7238 45.0676 18.8568 46.7553 20.2542 48.8179C21.6516 50.8804 22.7846 52.5679 22.8224 52.5679C23.2632 52.1801 23.6677 51.7533 24.0309 51.2929C24.9373 50.2429 25.2017 49.9804 25.2772 50.0929L26.3347 51.3304C26.8257 51.9304 27.7321 52.9054 28.3364 53.5055L29.3938 54.5556H31.6599C35.2479 54.5556 37.4761 54.8931 40.4597 55.9806L41.3662 56.2807L41.064 56.5056C39.289 57.8182 36.9852 58.6808 34.1148 59.1307C32.9629 59.2815 31.8022 59.3567 30.6402 59.3558C29.3938 59.3932 27.9965 59.3558 27.581 59.3183Z" fill="#29CCC4"/>
</svg>