<svg width="22" height="25" viewBox="0 0 36 36" fill="none" xmlns="http://www.w3.org/2000/svg">
<path d="M18 36C24.6627 36 30.0638 30.5988 30.0638 23.9361C30.0638 17.2735 24.6627 11.8723 18 11.8723C11.3373 11.8723 5.93616 17.2735 5.93616 23.9361C5.93616 30.5988 11.3373 36 18 36Z" fill="var(--muted-color)"/>
<path d="M12.4468 10.6886V7.85106C12.4468 4.789 14.9379 2.29787 18 2.29787C21.0621 2.29787 23.5532 4.789 23.5532 7.85106V10.6886C23.5657 10.6939 23.5784 10.6987 23.5909 10.704C24.3835 11.0392 25.1379 11.4422 25.8511 11.9084V7.85106C25.8511 3.52195 22.3291 0 18 0C13.6709 0 10.1489 3.52195 10.1489 7.85106V11.9083C10.8621 11.4422 11.6166 11.0392 12.409 10.7039C12.4216 10.6987 12.4342 10.6939 12.4468 10.6886Z" fill="var(--muted-color)"/>
</svg>
