<svg width="18" height="18" viewBox="0 0 18 18" fill="none" xmlns="http://www.w3.org/2000/svg">
<path d="M7.5011 1.08655H10.5094V1.59274H11.5958V1.01569C11.596 0.455658 11.1406 0 10.5808 0H7.42969C6.86993 0 6.41455 0.455658 6.41455 1.01569V1.59274H7.5011V1.08655Z" fill="var(--text-color)"/>
<path d="M14.1049 5.89746H3.90578C3.62631 5.89746 3.40631 6.13586 3.42883 6.41451L4.28151 16.9581C4.32903 17.5467 4.81998 18 5.40981 18H12.6008C13.1906 18 13.6816 17.5467 13.7291 16.9579L14.5817 6.41451C14.6044 6.13586 14.3844 5.89746 14.1049 5.89746ZM6.37537 16.8754C6.36397 16.8761 6.35257 16.8765 6.34131 16.8765C6.05649 16.8765 5.8174 16.6547 5.79968 16.3666L5.26534 7.71089C5.24693 7.41138 5.47476 7.15361 5.77414 7.13521C6.07256 7.11708 6.33142 7.34436 6.34982 7.64401L6.88403 16.2997C6.90257 16.5992 6.67474 16.8569 6.37537 16.8754ZM9.55467 16.3332C9.55467 16.6332 9.31146 16.8764 9.0114 16.8764C8.71133 16.8764 8.46812 16.6332 8.46812 16.3332V7.67738C8.46812 7.37732 8.71133 7.13411 9.0114 7.13411C9.31133 7.13411 9.55467 7.37732 9.55467 7.67738V16.3332ZM12.7454 7.70938L12.2352 16.3651C12.2183 16.6538 11.9788 16.8764 11.6934 16.8764C11.6827 16.8764 11.6719 16.8761 11.661 16.8755C11.3615 16.8578 11.133 16.6008 11.1507 16.3012L11.6608 7.64539C11.6783 7.34587 11.9346 7.11736 12.2349 7.13507C12.5344 7.15265 12.763 7.40987 12.7454 7.70938Z" fill="var(--text-color)"/>
<path d="M15.9837 4.2211L15.6269 3.15158C15.5329 2.86964 15.2689 2.67944 14.9716 2.67944H3.03921C2.74203 2.67944 2.47795 2.86964 2.38401 3.15158L2.02723 4.2211C1.95843 4.42737 2.04797 4.63776 2.2151 4.74268C2.28322 4.78539 2.36383 4.81107 2.4524 4.81107H15.5585C15.6471 4.81107 15.7279 4.78539 15.7959 4.74254C15.963 4.63762 16.0525 4.42723 15.9837 4.2211Z" fill="var(--text-color)"/>
</svg>